<svg width="22" height="25" viewBox="0 0 22 25" fill="none" xmlns="http://www.w3.org/2000/svg">
<path d="M16.5 12.625C16.5 16.422 13.422 19.5 9.625 19.5C5.82804 19.5 2.75 16.422 2.75 12.625C2.75 8.82804 5.82804 5.75 9.625 5.75C13.422 5.75 16.5 8.82804 16.5 12.625Z" stroke="#3995FF" stroke-width="2" stroke-linecap="round" stroke-linejoin="round"/>
<path d="M14.4863 17.4865L19.2498 22.25" stroke="#3995FF" stroke-width="2" stroke-linecap="round" stroke-linejoin="round"/>
<path d="M15.0195 0.5L15.0977 0.503906C15.1037 0.504148 15.1101 0.504419 15.1162 0.504883C15.3878 0.52563 15.6491 0.618413 15.873 0.774414C16.0413 0.891649 16.1827 1.0413 16.291 1.21289L16.3887 1.3916L16.3945 1.40625L16.4258 1.47852L16.4336 1.49902L17.2588 3.74023L19.4971 4.56543C19.4983 4.56588 19.4997 4.56594 19.501 4.56641C19.7568 4.66086 19.9829 4.82216 20.1553 5.0332C20.1595 5.03834 20.164 5.04352 20.168 5.04883L20.2148 5.11133L20.2373 5.14355L20.2793 5.20996C20.2823 5.21466 20.2853 5.21982 20.2881 5.22461C20.4256 5.45812 20.5 5.72578 20.5 6L20.4951 6.11719C20.4742 6.3884 20.3813 6.64947 20.2256 6.87305C20.0473 7.12889 19.7945 7.32526 19.501 7.43359C19.4998 7.43402 19.4982 7.43318 19.4971 7.43359L17.2588 8.25879L16.4336 10.5V10.501C16.3253 10.7945 16.1289 11.0473 15.873 11.2256C15.6495 11.3813 15.3884 11.4742 15.1172 11.4951L15 11.5C14.6874 11.5 14.382 11.404 14.126 11.2256C13.8696 11.0469 13.6744 10.7936 13.5664 10.501V10.5L12.7402 8.25879L10.499 7.43359C10.2055 7.32526 9.9527 7.12889 9.77441 6.87305C9.61841 6.64912 9.52563 6.38782 9.50488 6.11621C9.50442 6.11014 9.50415 6.10374 9.50391 6.09766L9.5 6.01953C9.49949 6.00653 9.49949 5.99347 9.5 5.98047L9.50391 5.90137C9.50415 5.89525 9.50441 5.88892 9.50488 5.88281C9.52573 5.61164 9.61836 5.34993 9.77441 5.12598C9.9531 4.8697 10.2063 4.67444 10.499 4.56641L12.7402 3.74023L13.5664 1.49902C13.5685 1.49341 13.571 1.48796 13.5732 1.48242L13.6025 1.41016L13.6113 1.3916C13.7247 1.14424 13.9019 0.930633 14.126 0.774414C14.382 0.595998 14.6874 0.5 15 0.5H15.0195ZM14.6895 5.0166C14.5746 5.32842 14.3284 5.57455 14.0166 5.68945L13.1729 5.99902L14.0166 6.31055C14.2893 6.4111 14.5114 6.61185 14.6396 6.86914L14.6895 6.98242L14.999 7.8252L15.3105 6.98242C15.4255 6.67101 15.671 6.42547 15.9824 6.31055L16.8252 5.99902L15.9824 5.68945C15.671 5.57455 15.4255 5.32829 15.3105 5.0166L14.999 4.17285L14.6895 5.0166Z" fill="url(#paint0_linear_11301_10987)"/>
<path d="M15.0195 0.5L15.0977 0.503906C15.1037 0.504148 15.1101 0.504419 15.1162 0.504883C15.3878 0.52563 15.6491 0.618413 15.873 0.774414C16.0413 0.891649 16.1827 1.0413 16.291 1.21289L16.3887 1.3916L16.3945 1.40625L16.4258 1.47852L16.4336 1.49902L17.2588 3.74023L19.4971 4.56543C19.4983 4.56588 19.4997 4.56594 19.501 4.56641C19.7568 4.66086 19.9829 4.82216 20.1553 5.0332C20.1595 5.03834 20.164 5.04352 20.168 5.04883L20.2148 5.11133L20.2373 5.14355L20.2793 5.20996C20.2823 5.21466 20.2853 5.21982 20.2881 5.22461C20.4256 5.45812 20.5 5.72578 20.5 6L20.4951 6.11719C20.4742 6.3884 20.3813 6.64947 20.2256 6.87305C20.0473 7.12889 19.7945 7.32526 19.501 7.43359C19.4998 7.43402 19.4982 7.43318 19.4971 7.43359L17.2588 8.25879L16.4336 10.5V10.501C16.3253 10.7945 16.1289 11.0473 15.873 11.2256C15.6495 11.3813 15.3884 11.4742 15.1172 11.4951L15 11.5C14.6874 11.5 14.382 11.404 14.126 11.2256C13.8696 11.0469 13.6744 10.7936 13.5664 10.501V10.5L12.7402 8.25879L10.499 7.43359C10.2055 7.32526 9.9527 7.12889 9.77441 6.87305C9.61841 6.64912 9.52563 6.38782 9.50488 6.11621C9.50442 6.11014 9.50415 6.10374 9.50391 6.09766L9.5 6.01953C9.49949 6.00653 9.49949 5.99347 9.5 5.98047L9.50391 5.90137C9.50415 5.89525 9.50441 5.88892 9.50488 5.88281C9.52573 5.61164 9.61836 5.34993 9.77441 5.12598C9.9531 4.8697 10.2063 4.67444 10.499 4.56641L12.7402 3.74023L13.5664 1.49902C13.5685 1.49341 13.571 1.48796 13.5732 1.48242L13.6025 1.41016L13.6113 1.3916C13.7247 1.14424 13.9019 0.930633 14.126 0.774414C14.382 0.595998 14.6874 0.5 15 0.5H15.0195ZM14.6895 5.0166C14.5746 5.32842 14.3284 5.57455 14.0166 5.68945L13.1729 5.99902L14.0166 6.31055C14.2893 6.4111 14.5114 6.61185 14.6396 6.86914L14.6895 6.98242L14.999 7.8252L15.3105 6.98242C15.4255 6.67101 15.671 6.42547 15.9824 6.31055L16.8252 5.99902L15.9824 5.68945C15.671 5.57455 15.4255 5.32829 15.3105 5.0166L14.999 4.17285L14.6895 5.0166Z" fill="url(#paint1_linear_11301_10987)"/>
<path d="M15.0195 0.5L15.0977 0.503906C15.1037 0.504148 15.1101 0.504419 15.1162 0.504883C15.3878 0.52563 15.6491 0.618413 15.873 0.774414C16.0413 0.891649 16.1827 1.0413 16.291 1.21289L16.3887 1.3916L16.3945 1.40625L16.4258 1.47852L16.4336 1.49902L17.2588 3.74023L19.4971 4.56543C19.4983 4.56588 19.4997 4.56594 19.501 4.56641C19.7568 4.66086 19.9829 4.82216 20.1553 5.0332C20.1595 5.03834 20.164 5.04352 20.168 5.04883L20.2148 5.11133L20.2373 5.14355L20.2793 5.20996C20.2823 5.21466 20.2853 5.21982 20.2881 5.22461C20.4256 5.45812 20.5 5.72578 20.5 6L20.4951 6.11719C20.4742 6.3884 20.3813 6.64947 20.2256 6.87305C20.0473 7.12889 19.7945 7.32526 19.501 7.43359C19.4998 7.43402 19.4982 7.43318 19.4971 7.43359L17.2588 8.25879L16.4336 10.5V10.501C16.3253 10.7945 16.1289 11.0473 15.873 11.2256C15.6495 11.3813 15.3884 11.4742 15.1172 11.4951L15 11.5C14.6874 11.5 14.382 11.404 14.126 11.2256C13.8696 11.0469 13.6744 10.7936 13.5664 10.501V10.5L12.7402 8.25879L10.499 7.43359C10.2055 7.32526 9.9527 7.12889 9.77441 6.87305C9.61841 6.64912 9.52563 6.38782 9.50488 6.11621C9.50442 6.11014 9.50415 6.10374 9.50391 6.09766L9.5 6.01953C9.49949 6.00653 9.49949 5.99347 9.5 5.98047L9.50391 5.90137C9.50415 5.89525 9.50441 5.88892 9.50488 5.88281C9.52573 5.61164 9.61836 5.34993 9.77441 5.12598C9.9531 4.8697 10.2063 4.67444 10.499 4.56641L12.7402 3.74023L13.5664 1.49902C13.5685 1.49341 13.571 1.48796 13.5732 1.48242L13.6025 1.41016L13.6113 1.3916C13.7247 1.14424 13.9019 0.930633 14.126 0.774414C14.382 0.595998 14.6874 0.5 15 0.5H15.0195ZM14.6895 5.0166C14.5746 5.32842 14.3284 5.57455 14.0166 5.68945L13.1729 5.99902L14.0166 6.31055C14.2893 6.4111 14.5114 6.61185 14.6396 6.86914L14.6895 6.98242L14.999 7.8252L15.3105 6.98242C15.4255 6.67101 15.671 6.42547 15.9824 6.31055L16.8252 5.99902L15.9824 5.68945C15.671 5.57455 15.4255 5.32829 15.3105 5.0166L14.999 4.17285L14.6895 5.0166Z" stroke="white" stroke-linecap="round" stroke-linejoin="round"/>
<defs>
<linearGradient id="paint0_linear_11301_10987" x1="10.6349" y1="5.99987" x2="19.3648" y2="5.99987" gradientUnits="userSpaceOnUse">
<stop stop-color="#B9E0FF"/>
<stop offset="1" stop-color="#DCD2EC"/>
</linearGradient>
<linearGradient id="paint1_linear_11301_10987" x1="10.8371" y1="4.00931" x2="15.6528" y2="9.0925" gradientUnits="userSpaceOnUse">
<stop stop-color="#9292FF"/>
<stop offset="1" stop-color="#3295FF"/>
</linearGradient>
</defs>
</svg>
