<svg width="98" height="38" viewBox="0 0 98 38" fill="none" xmlns="http://www.w3.org/2000/svg">
<path d="M23.1159 17.8789H26.549C27.5518 17.8789 28.367 17.1045 28.367 16.1514V1.72757C28.367 0.774553 27.5518 0 26.549 0H23.1159C22.1129 0 21.2979 0.774553 21.2979 1.72757V16.1514C21.2979 17.1045 22.1092 17.8789 23.1159 17.8789Z" fill="#0594C9"/>
<path d="M16.2539 0.0898933H12.8208C11.818 0.0898933 11.0029 0.864446 11.0029 1.81747V35.6837C11.0029 36.6367 11.818 37.4112 12.8208 37.4112H16.2539C17.2569 37.4112 18.072 36.6367 18.072 35.6837V1.81747C18.072 0.864446 17.2569 0.0898933 16.2539 0.0898933Z" fill="#0594C9"/>
<path d="M32.6938 27.6055H37.5467C38.159 27.6055 38.6548 27.1344 38.6548 26.5526V15.4733C38.6548 12.3429 35.9841 9.80864 32.6938 9.80864C32.0815 9.80864 31.5859 10.2799 31.5859 10.8616V26.549C31.5859 27.1344 32.0815 27.6055 32.6938 27.6055Z" fill="#0594C9"/>
<path d="M38.8371 32.157L36.4068 29.8477C35.697 29.173 34.5438 29.173 33.8339 29.8477L31.4036 32.157C30.6936 32.8316 30.6936 33.9274 31.4036 34.602L33.8339 36.9115C34.5438 37.5861 35.697 37.5861 36.4068 36.9115L38.8371 34.602C39.547 33.9239 39.547 32.8316 38.8371 32.157Z" fill="#4AC2E0"/>
<path d="M21.1145 24.8522C20.4045 24.1776 20.4045 23.0818 21.1145 22.4072L23.5448 20.0978C24.2546 19.4232 25.4078 19.4232 26.1177 20.0978L28.5479 22.4072C29.2578 23.0818 29.2578 24.1776 28.5479 24.8522L26.0237 27.2366C25.3139 27.9112 25.3139 29.089 26.0237 29.7636L28.5479 32.1552C29.2578 32.8298 29.2578 33.9256 28.5479 34.6002L26.1177 36.9095C25.4078 37.5841 24.2546 37.5841 23.5448 36.9095L21.1145 34.6002C20.4045 33.9256 20.4045 32.8298 21.1145 32.1552L23.6311 29.7636C24.341 29.089 24.341 27.9112 23.6311 27.2366L21.1145 24.8522Z" fill="#4AC2E0"/>
<path d="M6.67193 19.6133H1.81901C1.20675 19.6133 0.710938 20.0845 0.710938 20.6664V31.7457C0.710938 34.876 3.38156 37.4102 6.67193 37.4102C7.28418 37.4102 7.77997 36.9391 7.77997 36.3573V20.6699C7.77997 20.0881 7.28418 19.6133 6.67193 19.6133Z" fill="#0594C9"/>
<path d="M0.532433 15.0651L2.96266 17.3746C3.67259 18.0492 4.82575 18.0492 5.53563 17.3746L7.96588 15.0651C8.67575 14.3905 8.67575 13.2948 7.96588 12.6202L5.53563 10.3107C4.82575 9.63611 3.67259 9.63611 2.96266 10.3107L0.532433 12.6202C-0.177478 13.2948 -0.177478 14.3905 0.532433 15.0651Z" fill="#4AC2E0"/>
<path d="M59.764 16.7981C59.764 18.3651 59.2946 19.5751 58.3556 20.4281C57.4165 21.2813 56.1056 21.7061 54.4228 21.7061C52.6462 21.7061 51.3353 21.3062 50.4901 20.4996C49.645 19.6964 49.2243 18.5364 49.2356 17.023C49.2356 16.3805 49.3144 15.6416 49.476 14.81H51.8048C51.6658 15.5739 51.5982 16.12 51.6095 16.4447C51.5982 17.305 51.8161 17.9546 52.2555 18.3937C52.695 18.8327 53.4274 19.0504 54.4529 19.0504C55.4595 19.0504 56.1995 18.8791 56.669 18.5364C57.1385 18.1938 57.3751 17.6512 57.3751 16.9124C57.3751 16.0558 57.2625 15.0099 57.0408 13.7784H59.4335C59.6514 14.9207 59.764 15.9272 59.764 16.7981ZM55.5008 12.4577C55.5008 12.7719 55.3882 13.036 55.1628 13.2466C54.9374 13.4572 54.6595 13.5607 54.3252 13.5607C53.9834 13.5607 53.6979 13.4572 53.4688 13.2466C53.2396 13.036 53.127 12.7719 53.127 12.4577C53.127 12.1401 53.2396 11.8724 53.4688 11.6618C53.6979 11.4512 53.9834 11.3477 54.3252 11.3477C54.6632 11.3477 54.9449 11.4512 55.1665 11.6618C55.3882 11.8724 55.5008 12.1401 55.5008 12.4577Z" fill="#05264A"/>
<path d="M64.59 18.8244H64.3721C63.2641 18.8244 62.4715 18.5568 61.9908 18.0249C61.5099 17.4931 61.2695 16.6543 61.2695 15.5049V7.63091H63.8237V14.9624C63.8237 15.4621 63.9176 15.8047 64.1016 15.9904C64.2857 16.176 64.6313 16.2688 65.1347 16.2688V18.3283L64.59 18.8244Z" fill="#05264A"/>
<path d="M66.2822 18.8253H64.6182V16.7122L65.1328 16.2696H66.7892V18.3684L66.2822 18.8253Z" fill="#05264A"/>
<path d="M67.9384 18.8253H66.2744V16.7122L66.789 16.2696H68.4455V18.3684L67.9384 18.8253Z" fill="#05264A"/>
<path d="M69.5956 18.8253H67.9316V16.7122L68.4463 16.2696H70.1027V18.3684L69.5956 18.8253Z" fill="#05264A"/>
<path d="M71.2509 18.8253H69.5869V16.7122L70.1015 16.2696H71.758V18.3684L71.2509 18.8253Z" fill="#05264A"/>
<path d="M72.9052 18.8257H71.2412V16.7125L71.7558 16.27H73.4123V18.3688L72.9052 18.8257Z" fill="#05264A"/>
<path d="M74.5616 18.8257H72.8975V16.7125L73.4121 16.27H75.0685V18.3688L74.5616 18.8257Z" fill="#05264A"/>
<path d="M76.2177 18.8253H74.5537V16.7122L75.0683 16.2696H76.7248V18.3684L76.2177 18.8253Z" fill="#05264A"/>
<path d="M77.8759 18.8257H76.2119V16.7125L76.7265 16.27H78.383V18.3688L77.8759 18.8257Z" fill="#05264A"/>
<path d="M79.5322 18.8257H77.8682V16.7125L78.3828 16.27H80.0392V18.3688L79.5322 18.8257Z" fill="#05264A"/>
<path d="M81.2206 18.8253H79.5078V16.7122L80.0375 16.2696H81.7427V18.3684L81.2206 18.8253Z" fill="#05264A"/>
<path d="M86.8284 18.3289L86.3063 18.8215C85.5287 18.8215 84.9052 18.6644 84.4357 18.3468C83.9661 18.0291 83.6731 17.5686 83.5567 16.9654C83.4666 17.5722 83.2225 18.0327 82.8243 18.3468C82.4261 18.6608 81.8852 18.8215 81.2129 18.8215V16.7084L81.7426 16.2658C82.2496 16.2658 82.6064 16.1623 82.8093 15.9517C83.0121 15.7411 83.1135 15.3877 83.1135 14.8951V13.2461H85.4911V14.8951C85.4911 15.4234 85.5889 15.784 85.7804 15.9767C85.972 16.1695 86.3212 16.2658 86.8321 16.2658V18.3289H86.8284ZM83.6319 20.2956C83.8197 20.4741 83.9173 20.6954 83.9173 20.963C83.9173 21.2308 83.8235 21.4521 83.6319 21.6306C83.444 21.809 83.2036 21.8982 82.9107 21.8982C82.6177 21.8982 82.3773 21.809 82.1857 21.6306C81.9942 21.4521 81.8965 21.2308 81.8965 20.963C81.8965 20.6954 81.9942 20.4741 82.1857 20.2956C82.3773 20.1172 82.6177 20.028 82.9107 20.028C83.2036 20.028 83.4403 20.1172 83.6319 20.2956ZM86.0208 20.2956C86.2124 20.4741 86.31 20.6954 86.31 20.963C86.31 21.2308 86.2124 21.4521 86.0208 21.6306C85.8292 21.809 85.5889 21.8982 85.3034 21.8982C85.0179 21.8982 84.7775 21.809 84.5859 21.6306C84.3944 21.4521 84.2967 21.2308 84.2967 20.963C84.2967 20.6954 84.3944 20.4741 84.5859 20.2956C84.7775 20.1172 85.0179 20.028 85.3034 20.028C85.5889 20.028 85.8255 20.1172 86.0208 20.2956Z" fill="#05264A"/>
<path d="M88.0396 18.8253H86.293V16.7122L86.8339 16.2696H88.5729V18.3684L88.0396 18.8253Z" fill="#05264A"/>
<path d="M89.7798 18.8253H88.0332V16.7122L88.574 16.2696H90.3131V18.3684L89.7798 18.8253Z" fill="#05264A"/>
<path d="M91.519 18.8257H89.7725V16.7125L90.3133 16.27H92.0524V18.3688L91.519 18.8257Z" fill="#05264A"/>
<path d="M93.2583 18.8253H91.5117V16.7122L92.0526 16.2696H93.7918V18.3684L93.2583 18.8253Z" fill="#05264A"/>
<path d="M94.0148 18.8231H93.2598V16.71L93.7893 16.2674C94.304 16.2674 94.657 16.1532 94.8523 15.9212C95.0477 15.6928 95.1453 15.2965 95.1453 14.7362C95.1453 14.2007 95.0702 13.3583 94.92 12.209H97.3202C97.4553 13.3905 97.523 14.3649 97.523 15.1323C97.523 16.3281 97.2262 17.2419 96.629 17.8737C96.028 18.5054 95.1566 18.8231 94.0148 18.8231ZM97.061 20.797C97.061 21.1075 96.9483 21.368 96.7192 21.5822C96.49 21.7964 96.2083 21.9034 95.8778 21.9034C95.536 21.9034 95.2467 21.8 95.0176 21.5893C94.7885 21.3788 94.672 21.1146 94.672 20.8005C94.672 20.4793 94.7885 20.2151 95.0176 20.0046C95.2505 19.794 95.536 19.6904 95.8778 19.6904C96.2158 19.6904 96.4975 19.794 96.723 20.0046C96.9483 20.2116 97.061 20.4757 97.061 20.797Z" fill="#05264A"/>
<path d="M46.3691 23.6387H50.3018C52.3827 23.6387 53.2729 24.5275 53.2729 25.8302V25.8767C53.2729 26.8119 52.7696 27.433 51.7818 27.6792C52.8673 27.8541 53.5434 28.4752 53.5434 29.6352V29.6817C53.5434 31.1808 52.5217 32.0124 50.3394 32.0124H46.3691V23.6387ZM49.7947 26.9653C50.5835 26.9653 50.8803 26.7083 50.8803 26.1123V26.0659C50.8803 25.4912 50.561 25.2342 49.7947 25.2342H48.8369V26.9689H49.7947V26.9653ZM49.8811 30.4098C50.6812 30.4098 51.0531 30.06 51.0531 29.4389V29.3926C51.0531 28.7607 50.6962 28.4323 49.8098 28.4323H48.8369V30.4098H49.8811Z" fill="#05264A"/>
<path d="M56.5902 23.6387H59.8543L62.6527 32.0124H59.9783L59.5088 30.4561H56.5902L56.1207 32.0124H53.7656L56.5902 23.6387ZM57.0823 28.8036H59.0168L58.0552 25.584L57.0823 28.8036Z" fill="#05264A"/>
<path d="M65.5015 28.4288L62.6318 23.6387H65.3813L66.8725 26.4621L68.3637 23.6387H70.7789L68.0444 28.4288V32.0124H65.5053V28.4288H65.5015Z" fill="#05264A"/>
<path d="M73.5707 23.6387H76.8349L79.6332 32.0124H76.9588L76.4893 30.4561H73.5707L73.1012 32.0124H70.7461L73.5707 23.6387ZM74.0628 28.8036H75.9972L75.0357 25.584L74.0628 28.8036Z" fill="#05264A"/>
<path d="M82.4947 23.6387H85.7589L88.5572 32.0124H85.8828L85.4133 30.4561H82.4947L82.0251 32.0124H79.6699L82.4947 23.6387ZM82.9867 28.8036H84.9212L83.9595 25.584L82.9867 28.8036Z" fill="#05264A"/>
<path d="M89.285 23.6387H92.1322L94.953 28.3574V23.6387H97.1579V32.0124H94.7164L91.5011 26.7548V32.0124H89.2812V23.6387H89.285Z" fill="#05264A"/>
</svg>
