<svg width="40" height="38" viewBox="0 0 40 38" fill="none" xmlns="http://www.w3.org/2000/svg">
<path d="M23.1149 17.8789H26.548C27.5508 17.8789 28.366 17.1045 28.366 16.1514V1.72757C28.366 0.774553 27.5508 0 26.548 0H23.1149C22.1119 0 21.2969 0.774553 21.2969 1.72757V16.1514C21.2969 17.1045 22.1083 17.8789 23.1149 17.8789Z" fill="#0594C9"/>
<path d="M16.253 0.0898895H12.8199C11.817 0.0898895 11.002 0.864442 11.002 1.81746V35.6837C11.002 36.6366 11.817 37.4112 12.8199 37.4112H16.253C17.2559 37.4112 18.071 36.6366 18.071 35.6837V1.81746C18.071 0.864442 17.2559 0.0898895 16.253 0.0898895Z" fill="#0594C9"/>
<path d="M32.6938 27.6055H37.5467C38.159 27.6055 38.6548 27.1344 38.6548 26.5526V15.4733C38.6548 12.3429 35.9841 9.80864 32.6938 9.80864C32.0815 9.80864 31.5859 10.2799 31.5859 10.8616V26.549C31.5859 27.1344 32.0815 27.6055 32.6938 27.6055Z" fill="#0594C9"/>
<path d="M38.8371 32.157L36.4068 29.8476C35.697 29.173 34.5438 29.173 33.8339 29.8476L31.4036 32.157C30.6936 32.8316 30.6936 33.9274 31.4036 34.602L33.8339 36.9115C34.5438 37.5861 35.697 37.5861 36.4068 36.9115L38.8371 34.602C39.547 33.9239 39.547 32.8316 38.8371 32.157Z" fill="#4AC2E0"/>
<path d="M21.1145 24.8522C20.4045 24.1776 20.4045 23.0818 21.1145 22.4072L23.5448 20.0978C24.2546 19.4232 25.4078 19.4232 26.1177 20.0978L28.5479 22.4072C29.2578 23.0818 29.2578 24.1776 28.5479 24.8522L26.0237 27.2366C25.3139 27.9112 25.3139 29.089 26.0237 29.7636L28.5479 32.1552C29.2578 32.8298 29.2578 33.9256 28.5479 34.6002L26.1177 36.9095C25.4078 37.5841 24.2546 37.5841 23.5448 36.9095L21.1145 34.6002C20.4045 33.9256 20.4045 32.8298 21.1145 32.1552L23.6311 29.7636C24.341 29.089 24.341 27.9112 23.6311 27.2366L21.1145 24.8522Z" fill="#4AC2E0"/>
<path d="M6.67193 19.6133H1.81901C1.20675 19.6133 0.710938 20.0845 0.710938 20.6664V31.7457C0.710938 34.876 3.38156 37.4102 6.67193 37.4102C7.28418 37.4102 7.77997 36.9391 7.77997 36.3573V20.6698C7.77997 20.0881 7.28418 19.6133 6.67193 19.6133Z" fill="#0594C9"/>
<path d="M0.532433 15.0651L2.96266 17.3746C3.67259 18.0492 4.82575 18.0492 5.53563 17.3746L7.96588 15.0651C8.67575 14.3905 8.67575 13.2948 7.96588 12.6202L5.53563 10.3107C4.82575 9.63611 3.67259 9.63611 2.96266 10.3107L0.532433 12.6202C-0.177478 13.2948 -0.177478 14.3905 0.532433 15.0651Z" fill="#4AC2E0"/>
</svg>
