<svg width="40" height="40" viewBox="0 0 40 40" fill="none" xmlns="http://www.w3.org/2000/svg">
<rect width="40" height="40" rx="10" fill="#2A8C1F" fill-opacity="0.1"/>
<path d="M18.7072 25.6828C18.3549 26.4531 17.1791 28.25 13.8752 28.25C13.7094 28.25 13.5505 28.1841 13.4333 28.0669C13.3161 27.9497 13.2502 27.7907 13.2502 27.625C13.2502 24.3211 15.0471 23.1453 15.8174 22.7929C15.8921 22.7589 15.9728 22.7399 16.0548 22.737C16.1368 22.7341 16.2186 22.7474 16.2955 22.7761C16.3724 22.8048 16.4429 22.8484 16.503 22.9044C16.563 22.9604 16.6115 23.0276 16.6455 23.1023C16.6796 23.177 16.6986 23.2577 16.7015 23.3397C16.7044 23.4217 16.6911 23.5036 16.6623 23.5805C16.6336 23.6574 16.59 23.7278 16.5341 23.7879C16.4781 23.8479 16.4108 23.8964 16.3361 23.9304C15.8338 24.1593 14.7252 24.8961 14.5299 26.9703C16.6041 26.775 17.3424 25.6664 17.5697 25.164C17.6038 25.0893 17.6522 25.0221 17.7123 24.9661C17.7723 24.9102 17.8428 24.8666 17.9197 24.8378C17.9966 24.8091 18.0784 24.7958 18.1605 24.7987C18.2425 24.8016 18.3232 24.8206 18.3979 24.8547C18.4726 24.8887 18.5398 24.9372 18.5958 24.9972C18.6517 25.0573 18.6953 25.1277 18.7241 25.2046C18.7528 25.2815 18.7661 25.3634 18.7632 25.4454C18.7603 25.5274 18.7413 25.6081 18.7072 25.6828ZM28.2385 14.4328C28.22 14.128 28.0906 13.8406 27.8747 13.6247C27.6588 13.4088 27.3714 13.2794 27.0666 13.2609C26.0838 13.2023 23.5721 13.2922 21.4885 15.3758L17.6252 19.2422C17.5672 19.3003 17.4983 19.3464 17.4224 19.3779C17.3466 19.4094 17.2653 19.4256 17.1832 19.4257C17.0173 19.4259 16.8582 19.3601 16.7408 19.2429C16.6235 19.1258 16.5574 18.9668 16.5573 18.8009C16.5571 18.6351 16.6229 18.4759 16.7401 18.3586L18.8151 16.2828C18.8585 16.2391 18.888 16.1835 18.9 16.1231C18.9119 16.0626 18.9058 16 18.8822 15.9431C18.8587 15.8861 18.8188 15.8374 18.7677 15.8031C18.7165 15.7687 18.6564 15.7502 18.5947 15.75H16.5588C16.3941 15.7491 16.231 15.781 16.0787 15.8437C15.9265 15.9065 15.7883 15.9989 15.6721 16.1156L12.9924 18.7968C12.8281 18.9611 12.7127 19.1678 12.6594 19.394C12.606 19.6201 12.6168 19.8566 12.6903 20.077C12.7639 20.2973 12.8975 20.4928 13.076 20.6415C13.2545 20.7902 13.4709 20.8862 13.701 20.9187L16.7065 21.3383L20.1604 24.7922L20.5799 27.7992C20.6122 28.0292 20.7081 28.2457 20.8569 28.4241C21.0058 28.6024 21.2015 28.7356 21.4221 28.8086C21.5505 28.8515 21.6851 28.8734 21.8205 28.8734C21.9845 28.8737 22.1469 28.8416 22.2985 28.7788C22.45 28.7161 22.5876 28.624 22.7033 28.5078L25.3846 25.8281C25.5009 25.7116 25.5931 25.5734 25.6558 25.4212C25.7186 25.269 25.7506 25.106 25.7502 24.9414V22.9054C25.7501 22.8437 25.7317 22.7833 25.6973 22.732C25.6629 22.6807 25.6141 22.6407 25.557 22.6171C25.4999 22.5936 25.4371 22.5874 25.3765 22.5995C25.3159 22.6116 25.2603 22.6414 25.2166 22.6851L23.1408 24.7601C23.0801 24.8209 23.0075 24.8685 22.9276 24.9C22.8477 24.9314 22.7621 24.9461 22.6763 24.943C22.5904 24.9399 22.5061 24.9192 22.4287 24.8821C22.3512 24.845 22.2822 24.7923 22.226 24.7273C22.1235 24.6033 22.0714 24.4452 22.0801 24.2846C22.0887 24.1239 22.1576 23.9724 22.2729 23.8601L26.1221 20.0109C28.2072 17.9265 28.2971 15.4148 28.2385 14.4312V14.4328Z" fill="#2A8C1F"/>
</svg>
