<svg width="40" height="40" viewBox="0 0 40 40" fill="none" xmlns="http://www.w3.org/2000/svg">
<rect width="40" height="40" rx="10" fill="#39ADD8" fill-opacity="0.1"/>
<path d="M17.6253 28.25C17.6253 28.4972 17.552 28.7389 17.4147 28.9445C17.2773 29.15 17.0821 29.3102 16.8537 29.4048C16.6253 29.4995 16.374 29.5242 16.1315 29.476C15.889 29.4278 15.6663 29.3087 15.4915 29.1339C15.3166 28.9591 15.1976 28.7363 15.1494 28.4939C15.1011 28.2514 15.1259 28.0001 15.2205 27.7716C15.3151 27.5432 15.4753 27.348 15.6809 27.2107C15.8864 27.0733 16.1281 27 16.3753 27C16.7069 27 17.0248 27.1317 17.2592 27.3661C17.4937 27.6005 17.6253 27.9185 17.6253 28.25ZM27.6253 27C27.3781 27 27.1364 27.0733 26.9309 27.2107C26.7253 27.348 26.5651 27.5432 26.4705 27.7716C26.3759 28.0001 26.3511 28.2514 26.3994 28.4939C26.4476 28.7363 26.5666 28.9591 26.7415 29.1339C26.9163 29.3087 27.139 29.4278 27.3815 29.476C27.624 29.5242 27.8753 29.4995 28.1037 29.4048C28.3321 29.3102 28.5273 29.15 28.6647 28.9445C28.802 28.7389 28.8753 28.4972 28.8753 28.25C28.8753 27.9185 28.7437 27.6005 28.5092 27.3661C28.2748 27.1317 27.9569 27 27.6253 27ZM29.5003 24.5H15.1253V16.6336C15.1259 16.4694 15.0937 16.3067 15.0308 16.155C14.9679 16.0033 14.8755 15.8657 14.7589 15.75L13.0675 14.0578C13.0095 13.9997 12.9405 13.9537 12.8647 13.9223C12.7888 13.8908 12.7075 13.8747 12.6253 13.8747C12.4595 13.8747 12.3004 13.9405 12.1832 14.0578C12.1251 14.1159 12.079 14.1848 12.0476 14.2607C12.0162 14.3366 12 14.4179 12 14.5C12 14.6659 12.0659 14.8249 12.1832 14.9422L13.8753 16.6336V24.5H13.2503C13.0846 24.5 12.9256 24.5658 12.8084 24.6831C12.6912 24.8003 12.6253 24.9592 12.6253 25.125C12.6253 25.2908 12.6912 25.4497 12.8084 25.5669C12.9256 25.6842 13.0846 25.75 13.2503 25.75H29.5003C29.6661 25.75 29.8251 25.6842 29.9423 25.5669C30.0595 25.4497 30.1253 25.2908 30.1253 25.125C30.1253 24.9592 30.0595 24.8003 29.9423 24.6831C29.8251 24.5658 29.6661 24.5 29.5003 24.5ZM16.3753 22V16.375C16.3753 16.0435 16.507 15.7255 16.7415 15.4911C16.9759 15.2567 17.2938 15.125 17.6253 15.125H20.1253V13.875C20.1253 13.5435 20.257 13.2255 20.4915 12.9911C20.7259 12.7567 21.0438 12.625 21.3753 12.625H23.8753C24.2069 12.625 24.5248 12.7567 24.7592 12.9911C24.9937 13.2255 25.1253 13.5435 25.1253 13.875V15.125H27.6253C27.9569 15.125 28.2748 15.2567 28.5092 15.4911C28.7437 15.7255 28.8753 16.0435 28.8753 16.375V22C28.8753 22.3315 28.7437 22.6495 28.5092 22.8839C28.2748 23.1183 27.9569 23.25 27.6253 23.25H17.6253C17.2938 23.25 16.9759 23.1183 16.7415 22.8839C16.507 22.6495 16.3753 22.3315 16.3753 22ZM21.3753 15.125H23.8753V13.875H21.3753V15.125Z" fill="#39ADD8"/>
</svg>
