<svg width="40" height="40" viewBox="0 0 40 40" fill="none" xmlns="http://www.w3.org/2000/svg">
<rect width="40" height="40" rx="10" fill="#328DF1" fill-opacity="0.1"/>
<path d="M29.5003 15.125V20.125C29.5004 20.2487 29.4638 20.3696 29.3952 20.4725C29.3265 20.5754 29.2289 20.6555 29.1146 20.7029C29.0003 20.7502 28.8746 20.7626 28.7533 20.7385C28.632 20.7143 28.5206 20.6547 28.4332 20.5672L26.3753 18.5086L21.8175 23.0672C21.7595 23.1253 21.6906 23.1714 21.6147 23.2029C21.5388 23.2343 21.4575 23.2505 21.3753 23.2505C21.2932 23.2505 21.2119 23.2343 21.136 23.2029C21.0601 23.1714 20.9912 23.1253 20.9332 23.0672L18.2503 20.3836L13.0675 25.5672C12.9503 25.6845 12.7912 25.7503 12.6253 25.7503C12.4595 25.7503 12.3004 25.6845 12.1832 25.5672C12.0659 25.4499 12 25.2909 12 25.125C12 24.9591 12.0659 24.8001 12.1832 24.6828L17.8082 19.0578C17.8662 18.9997 17.9351 18.9536 18.011 18.9222C18.0869 18.8907 18.1682 18.8745 18.2503 18.8745C18.3325 18.8745 18.4138 18.8907 18.4897 18.9222C18.5656 18.9536 18.6345 18.9997 18.6925 19.0578L21.3753 21.7414L25.4918 17.625L23.4332 15.5672C23.3457 15.4798 23.286 15.3684 23.2619 15.2471C23.2377 15.1258 23.2501 15 23.2975 14.8858C23.3448 14.7715 23.425 14.6738 23.5279 14.6052C23.6307 14.5365 23.7517 14.4999 23.8753 14.5H28.8753C29.0411 14.5 29.2001 14.5658 29.3173 14.6831C29.4345 14.8003 29.5003 14.9592 29.5003 15.125Z" fill="#328DF1"/>
</svg>
