<svg width="40" height="40" viewBox="0 0 40 40" fill="none" xmlns="http://www.w3.org/2000/svg">
<rect width="40" height="40" rx="10" fill="#CB9F40" fill-opacity="0.1"/>
<path d="M22.625 22.625H18.875V13.875C18.875 13.5435 19.0067 13.2255 19.2411 12.9911C19.4755 12.7567 19.7935 12.625 20.125 12.625H21.375C21.7065 12.625 22.0245 12.7567 22.2589 12.9911C22.4933 13.2255 22.625 13.5435 22.625 13.875V22.625ZM28.25 23.875H13.25C12.9185 23.875 12.6005 24.0067 12.3661 24.2411C12.1317 24.4755 12 24.7935 12 25.125V25.75C12 26.0815 12.1317 26.3995 12.3661 26.6339C12.6005 26.8683 12.9185 27 13.25 27H28.25C28.5815 27 28.8995 26.8683 29.1339 26.6339C29.3683 26.3995 29.5 26.0815 29.5 25.75V25.125C29.5 24.7935 29.3683 24.4755 29.1339 24.2411C28.8995 24.0067 28.5815 23.875 28.25 23.875ZM28.25 22.3125V21.375C28.2462 20.0273 27.881 18.7053 27.1924 17.5468C26.5038 16.3883 25.5171 15.4357 24.3352 14.7883C24.2875 14.7627 24.2341 14.75 24.18 14.7513C24.126 14.7526 24.0732 14.7679 24.0269 14.7957C23.9805 14.8234 23.9421 14.8628 23.9155 14.9098C23.8889 14.9569 23.8749 15.01 23.875 15.0641V22.625H27.9375C28.0204 22.625 28.0999 22.5921 28.1585 22.5335C28.2171 22.4749 28.25 22.3954 28.25 22.3125ZM13.5625 22.625H17.625V15.0641C17.6251 15.01 17.6111 14.9569 17.5845 14.9098C17.5579 14.8628 17.5195 14.8234 17.4731 14.7957C17.4268 14.7679 17.374 14.7526 17.32 14.7513C17.2659 14.75 17.2125 14.7627 17.1648 14.7883C15.9829 15.4357 14.9962 16.3883 14.3076 17.5468C13.619 18.7053 13.2538 20.0273 13.25 21.375V22.3125C13.25 22.3954 13.2829 22.4749 13.3415 22.5335C13.4001 22.5921 13.4796 22.625 13.5625 22.625Z" fill="#CB9F40"/>
</svg>
