<svg xmlns="http://www.w3.org/2000/svg" width="266.80246903042007" height="89" style=""><rect id="backgroundrect" width="100%" height="100%" x="0" y="0" fill="transparent" stroke="none" class="" style="" fill-opacity="1"/><style>.B{fill:#e73741}.C{fill:#231f20}.D{fill:#060404}</style><g class="currentLayer" style=""><title>Layer 1</title><path d="M222.22049337387085,34.328394865989694 a0.630000000000007,0.630000000000007 0 0 1 -0.25,0.2400000000000002 a1,1 0 0 1 -0.6000000000000006,0.14 a0.670000000000009,0.670000000000009 0 0 1 -0.5800000000000006,-0.2900000000000003 a10.81,10.81 0 0 1 -1.11,-2.2 l-0.870000000000007,-2.12 a12.55,12.55 0 0 0 -1,-2.05 a4.9,4.9 0 0 0 -1.44,-1.22 a4.11,4.11 0 0 0 -1.3,-0.28 a7.84,7.84 0 0 0 -2.15,0.18000000000000024 a2.15,2.15 0 0 0 -1.08,0.5700000000000006 a1,1 0 0 1 -0.32000000000000367,0.28 a3.72,3.72 0 0 0 -1,0.53 a1.21,1.21 0 0 0 -0.26,1.87 v-0.4300000000000003 a1.6700000000000008,1.6700000000000008 0 0 0 1.05,0.19000000000000186 c0.45,-0.06000000000000068 0.7300000000000006,0.620000000000007 0.7300000000000006,0.620000000000007 l0.08000000000000022,-0.2 a1.75,1.75 0 0 0 0.26,0.52 l0.07,-0.1 c0.13,0.17 0.3500000000000003,0.28 0.3700000000000018,0.55 a1.09,1.09 0 0 1 -0.4300000000000003,0.78 c-0.12000000000000002,0.1 -0.8300000000000006,0.7000000000000006 -1.58,1.47 l-1,1.07 a0.93,0.93 0 0 1 -0.5900000000000006,0.3700000000000018 h-0.1 a0.7100000000000006,0.7100000000000006 0 0 1 -0.5,-0.22000000000000094 l-5.75,-7.6 c3.4,-3.2800000000000002 8.93,-3.7800000000000002 10.28,-3.68 c0.32000000000000367,0 0.7000000000000006,0.28 0.28,0.8 a2.39,2.39 0 0 0 1.84,-0.3600000000000003 a2.36,2.36 0 0 0 1.83,0.3600000000000003 c-0.4,-0.53 0,-0.78 0.28,-0.8 a14.59,14.59 0 0 1 10.28,3.77 c-1.8,2.36 -4.2,5.36 -5.48,7.23 m16.2,9.9 c0.12000000000000002,-12.27 -2.58,-19.14 -4.92,-22.5 l1.33,-1.73 a2.31,2.31 0 0 1 1.47,-0.7200000000000006 A26,26 0 0 1 237.16049337387085,15.728394865989685 a19.68,19.68 0 0 1 -3.13,1.82 a2.22,2.22 0 0 1 -0.3000000000000003,1.61 l-1,1.37 a14.38,14.38 0 0 0 -4,-3.29 c-0.4,-0.2400000000000002 -0.8600000000000046,-0.4700000000000003 -1.34,-0.7000000000000006 a2.3,2.3 0 0 0 -0.630000000000007,-1.7200000000000002 a1.24,1.24 0 0 0 -0.7300000000000006,-1 a1.61,1.61 0 0 0 -1.3,0.3500000000000003 a3,3 0 0 0 -1.7400000000000002,1 a33.47,33.47 0 0 0 -4.92,-0.6500000000000079 a2.8600000000000003,2.8600000000000003 0 0 0 -1.56,-1.98 a1.58,1.58 0 0 0 -1.2,-0.8200000000000006 a1.58,1.58 0 0 0 -1.2,0.8200000000000006 a2.85,2.85 0 0 0 -1.53,1.92 a33.44,33.44 0 0 0 -4.93,0.6500000000000079 a3,3 0 0 0 -1.7400000000000002,-1 a1.61,1.61 0 0 0 -1.3,-0.3500000000000003 a1.21,1.21 0 0 0 -0.7200000000000006,1 a2.26,2.26 0 0 0 -0.630000000000007,1.7200000000000002 a14.13,14.13 0 0 0 -1.35,0.6900000000000094 a12.71,12.71 0 0 0 -3.89,3.24 l-0.93,-1.24 a2.11,2.11 0 0 1 -0.3000000000000003,-1.61 a20,20 0 0 1 -3.13,-1.81 a26.83,26.83 0 0 1 0.8300000000000006,3.54 a2.34,2.34 0 0 1 1.48,0.7200000000000006 l1.2,1.57 c-2.35,3.35 -5.1,10.28 -5,22.63 c0,1.1400000000000001 -0.4800000000000003,11.84 3,19 a17,17 0 0 0 3.36,4.51 a12.76,12.76 0 0 0 5.5600000000000005,3.1 l0.25,0.07 a8.44,8.44 0 0 0 5.79,-0.23 l-0.13,0.33000000000000396 c0,0.08000000000000022 -0.1,0.22000000000000094 -0.12000000000000002,0.3000000000000003 c-0.5,1.33 -0.16000000000000192,2.7 1.6300000000000003,2.9 a4.55,4.55 0 0 1 1.62,0.3600000000000003 a5,5 0 0 1 1.45,1.09 a6.24,6.24 0 0 1 0.92,1.29 a6.6400000000000015,6.6400000000000015 0 0 1 0.92,-1.29 a5.15,5.15 0 0 1 1.45,-1.09 a4.55,4.55 0 0 1 1.62,-0.3600000000000003 c1.8,-0.2 2.13,-1.58 1.6400000000000001,-2.9 c0,-0.08000000000000022 -0.08000000000000022,-0.22000000000000094 -0.12000000000000002,-0.3000000000000003 s-0.13,-0.33000000000000396 -0.13,-0.33000000000000396 c1.24,0.7300000000000006 5.06,1.28 8.73,-1 a15.2,15.2 0 0 0 5.82,-6.3 c3.48,-7.2 3,-18.12 3,-19.1 " fill="#ffffff" id="svg_1" class="" fill-opacity="1"/><path class="B" d="M237.68049337387086,40.868394865989686 a32.55,32.55 0 0 1 -5.19,3.5 l-0.8400000000000006,0.45 v-0.6000000000000006 a32.73,32.73 0 0 0 -3.71,-15.16 l-1.9300000000000002,2.47 a1.7400000000000002,1.7400000000000002 0 0 1 1.47,0.53 a15.09,15.09 0 0 1 2.92,4.72 a12.49,12.49 0 0 1 0.6600000000000084,4.42 s-0.4700000000000003,8.26 -1.42,16.17 l-1.33,8.12 a5.11,5.11 0 0 1 -0.9,-2 l-0.08000000000000022,0.07 a6.32,6.32 0 0 1 -0.8,-2.13 a31.81,31.81 0 0 1 -0.3700000000000018,-5.8900000000000015 a2.51,2.51 0 0 0 -0.32000000000000367,-1.1 a4.68,4.68 0 0 1 -0.3600000000000003,-1 a6.7,6.7 0 0 0 -2.08,-3.52 a10.35,10.35 0 0 1 -1.46,-2.4 l-0.06000000000000068,0.05000000000000059 a2,2 0 0 0 -0.6500000000000079,0.91 a8.93,8.93 0 0 1 0.05000000000000059,2.8600000000000003 a2.88,2.88 0 0 1 -0.27,-0.22000000000000094 c0.1,0.8500000000000006 -0.32000000000000367,1.84 -0.06000000000000068,2.63 l-0.5,-0.07 a0.6400000000000079,0.6400000000000079 0 0 0 0.06000000000000068,0.12000000000000002 a0.630000000000007,0.630000000000007 0 0 0 0.26,0.22000000000000094 l0.16000000000000192,0.08000000000000022 c0.05000000000000059,0 0.17,0.07 0.52,0.18000000000000024 a1.54,1.54 0 0 0 -0.22000000000000094,-1.61 c-0.2400000000000002,-0.3000000000000003 0.05000000000000059,-0.7000000000000006 0.54,-0.5 a6.8,6.8 0 0 1 2.08,1.3800000000000001 c1.06,1 1.37,2 1.1400000000000001,2.16 s-0.3000000000000003,0.12000000000000002 -0.5,0 a0.5,0.5 0 0 1 0,0.12000000000000002 a0.620000000000007,0.620000000000007 0 0 1 -0.45,0.39000000000000395 a0.6900000000000094,0.6900000000000094 0 0 1 -0.620000000000007,0.2 a1.52,1.52 0 0 1 -0.6100000000000046,-0.18000000000000024 a0.7600000000000074,0.7600000000000074 0 0 1 -0.21000000000000021,-0.15000000000000024 l-0.2,0.15000000000000024 a44.56,44.56 0 0 1 3.5700000000000003,5 a15.29,15.29 0 0 1 1.2,2.67 a2.1,2.1 0 0 1 -1,0 a3.5700000000000003,3.5700000000000003 0 0 1 0.27,1.49 a3.06,3.06 0 0 1 -1.62,-0.3800000000000035 a2.74,2.74 0 0 1 0.05000000000000059,0.28 l1.34,1 c-2.5,1.18 -6.13,0.6400000000000079 -6.2,0.630000000000007 l-0.4700000000000003,-0.07 c0,0.07 -0.06000000000000068,0.15000000000000024 -0.1,0.23 l0.9400000000000006,2.2 a8.31,8.31 0 0 0 5.35,0.8300000000000006 a7.33,7.33 0 0 0 1.36,-0.3700000000000018 a13.89,13.89 0 0 0 4.3,-2.7800000000000002 a16.66,16.66 0 0 0 3.23,-4.13 c2.77,-5.4 3.22,-13.44 3.22,-16.68 v-1.7000000000000002 c0,-1.1 -0.08000000000000022,-2.87 -0.12000000000000002,-3.7 M210.66049337387085,69.30839486598968 l0.870000000000007,-2.1 c0,-0.1 -0.07,-0.2 -0.1,-0.32000000000000367 l-1,0.15000000000000024 c-0.3000000000000003,0.04000000000000011 -3.68,0.55 -6.18,-0.630000000000007 l1.6400000000000001,-1.18 v-0.15000000000000024 a3.06,3.06 0 0 1 -1.62,0.3800000000000035 a3.93,3.93 0 0 1 0.27,-1.49 a2,2 0 0 1 -1,0 a15,15 0 0 1 1.19,-2.68 a30,30 0 0 1 2.74,-3.8600000000000003 a2,2 0 0 1 0.4800000000000003,-0.870000000000007 l0.15000000000000024,-0.17 l-0.3000000000000003,-0.2400000000000002 a0.7100000000000006,0.7100000000000006 0 0 1 -0.25,0.19000000000000186 a1.54,1.54 0 0 1 -0.6100000000000046,0.18000000000000024 c-0.33000000000000396,0 -0.5,-0.05000000000000059 -0.620000000000007,-0.2 a0.5900000000000006,0.5900000000000006 0 0 1 -0.45,-0.39000000000000395 a0.25,0.25 0 0 1 0,-0.12000000000000002 a0.4100000000000003,0.4100000000000003 0 0 1 -0.46,-0.06000000000000068 c-0.22000000000000094,-0.2 0.1,-1.1600000000000001 1.1400000000000001,-2.16 a7.1,7.1 0 0 1 2.08,-1.3900000000000001 c0.5,-0.22000000000000094 0.8,0.2 0.54,0.5 a1.52,1.52 0 0 0 -0.21000000000000021,1.61 a4.4,4.4 0 0 0 0.46,-0.17 a0.740000000000007,0.740000000000007 0 0 0 0.4200000000000003,-0.2900000000000003 V53.728394865989685 h-0.4400000000000035 c0.22000000000000094,-0.55 -0.12000000000000002,-1.9 0.1,-2.7800000000000002 a1.3900000000000001,1.3900000000000001 0 0 1 -0.3000000000000003,0.17 a10.65,10.65 0 0 1 -0.07,-2.68 a1.8800000000000003,1.8800000000000003 0 0 0 -0.55,-0.7600000000000074 a8.41,8.41 0 0 1 -1.4,2.29 a6.75,6.75 0 0 0 -2.04,3.52 a4.5,4.5 0 0 1 -0.3600000000000003,1 a2.56,2.56 0 0 0 -0.32000000000000367,1.11 a32.59,32.59 0 0 1 -0.3700000000000018,5.88 a6.2,6.2 0 0 1 -0.8,2.13 l-0.08000000000000022,-0.07 a5.08,5.08 0 0 1 -0.9,2 s-0.4800000000000003,-0.9400000000000006 -1.33,-8.13 c-0.9500000000000006,-7.9 -1.42,-16.16 -1.42,-16.16 a12.53,12.53 0 0 1 0.6600000000000084,-4.42 a15.22,15.22 0 0 1 2.92,-4.72 a1.7400000000000002,1.7400000000000002 0 0 1 1.62,-0.5 l-0.32000000000000367,-0.4400000000000035 l-1.7000000000000002,-2.22 c-3.8600000000000003,6.8 -3.77,14.92 -3.77,15 v0.870000000000007 l-0.680000000000009,-0.3600000000000003 a33.5,33.5 0 0 1 -5.35,-3.59 c0,0.8200000000000006 -0.12000000000000002,3.62 -0.12000000000000002,3.62 v1.7000000000000002 c0,3.25 0.5800000000000006,11.2 3.23,16.7 a16.27,16.27 0 0 0 3.1,4.17 a12.16,12.16 0 0 0 4.7,2.75 l0.4,0.13 a8.33,8.33 0 0 0 6.39,-0.5700000000000006 zm1.6600000000000001,2.06 a35.57,35.57 0 0 1 0.4,-3.64 a1.79,1.79 0 0 1 -0.6000000000000006,0.45 s-0.1,-0.05000000000000059 -0.16000000000000192,-0.13 l-1.46,3.58 a1.6800000000000006,1.6800000000000006 0 0 1 1.82,-0.26 m5.84,0.9600000000000006 a40.82,40.82 0 0 0 -0.6100000000000046,-5.25 l-0.1,-0.12000000000000002 a1.6400000000000001,1.6400000000000001 0 0 1 -0.14,-0.22000000000000094 a6.58,6.58 0 0 1 -0.3500000000000003,1 a2.13,2.13 0 0 1 -0.5,0.77 a3.62,3.62 0 0 1 -1.23,-1.52 a3.66,3.66 0 0 1 -1.22,1.5 a2.33,2.33 0 0 1 -0.5,-0.78 a5.38,5.38 0 0 1 -0.2,-0.51 a40.86,40.86 0 0 0 -0.55,5.17 c-1.5,-1 -2.4,0 -2.1,0.7000000000000006 a0.8600000000000046,0.8600000000000046 0 0 0 0.1,0.16000000000000192 a0.93,0.93 0 0 0 0.740000000000007,0.39000000000000395 a5.07,5.07 0 0 1 1.85,0.4300000000000003 a5.8100000000000005,5.8100000000000005 0 0 1 2.1,1.73 a5.91,5.91 0 0 1 2.11,-1.73 a5,5 0 0 1 1.84,-0.4300000000000003 a1,1 0 0 0 0.750000000000007,-0.39000000000000395 a0.8600000000000046,0.8600000000000046 0 0 0 0.1,-0.16000000000000192 c0.3000000000000003,-0.7000000000000006 -0.6000000000000006,-1.6800000000000006 -2.1,-0.7000000000000006 m0.5700000000000006,-4.2 a1.9300000000000002,1.9300000000000002 0 0 1 -0.5,-0.3500000000000003 a28.34,28.34 0 0 1 0.45,3.54 a1.6700000000000008,1.6700000000000008 0 0 1 1.81,0.26 l-1.46,-3.77 c-0.14,0.18000000000000024 -0.27,0.33000000000000396 -0.3000000000000003,0.32000000000000367 " id="svg_2" fill="#ffffff" fill-opacity="1"/><path class="C" d="M213.03049337387085,38.20839486598969 " id="svg_3" fill="#ffffff" fill-opacity="1"/><path class="C" d="M212.16049337387085,38.56839486598969 " id="svg_4" fill="#ffffff" fill-opacity="1"/><path class="D" d="M237.80049337387084,44.55839486598968 l-0.12000000000000002,-3.7 a32.55,32.55 0 0 1 -5.19,3.5 l-0.8400000000000006,0.45 v-0.6000000000000006 a32.73,32.73 0 0 0 -3.71,-15.16 l-1.9300000000000002,2.47 a1.7400000000000002,1.7400000000000002 0 0 1 1.47,0.53 a15.09,15.09 0 0 1 2.92,4.72 a12.49,12.49 0 0 1 0.6600000000000084,4.42 s-0.4700000000000003,8.26 -1.42,16.17 l-1.33,8.12 a5.11,5.11 0 0 1 -0.9,-2 l-0.08000000000000022,0.07 a6.32,6.32 0 0 1 -0.8,-2.13 a31.81,31.81 0 0 1 -0.3700000000000018,-5.8900000000000015 a2.51,2.51 0 0 0 -0.32000000000000367,-1.1 a4.68,4.68 0 0 1 -0.3600000000000003,-1 a6.7,6.7 0 0 0 -2.08,-3.52 a10.35,10.35 0 0 1 -1.46,-2.4 l-0.06000000000000068,0.05000000000000059 a2,2 0 0 0 -0.6500000000000079,0.91 a8.93,8.93 0 0 1 0.05000000000000059,2.8600000000000003 a2.88,2.88 0 0 1 -0.27,-0.22000000000000094 c0.1,0.8500000000000006 -0.32000000000000367,1.84 -0.06000000000000068,2.63 l-0.5,-0.07 a0.6400000000000079,0.6400000000000079 0 0 0 0.06000000000000068,0.12000000000000002 a0.630000000000007,0.630000000000007 0 0 0 0.26,0.22000000000000094 l0.16000000000000192,0.08000000000000022 c0.05000000000000059,0 0.17,0.07 0.52,0.18000000000000024 a1.54,1.54 0 0 0 -0.22000000000000094,-1.61 c-0.2400000000000002,-0.3000000000000003 0.05000000000000059,-0.7000000000000006 0.54,-0.5 a6.8,6.8 0 0 1 2.08,1.3800000000000001 c1.06,1 1.37,2 1.1400000000000001,2.16 s-0.3000000000000003,0.12000000000000002 -0.5,0 a0.5,0.5 0 0 1 0,0.12000000000000002 a0.620000000000007,0.620000000000007 0 0 1 -0.45,0.39000000000000395 a0.6900000000000094,0.6900000000000094 0 0 1 -0.620000000000007,0.2 a1.52,1.52 0 0 1 -0.6100000000000046,-0.18000000000000024 a0.7600000000000074,0.7600000000000074 0 0 1 -0.21000000000000021,-0.15000000000000024 l-0.2,0.15000000000000024 a45.24,45.24 0 0 1 3.5700000000000003,5 a15.54,15.54 0 0 1 1.2,2.68 a2.1,2.1 0 0 1 -1,0 a3.5700000000000003,3.5700000000000003 0 0 1 0.27,1.49 a3.06,3.06 0 0 1 -1.62,-0.3800000000000035 a2.74,2.74 0 0 1 0.05000000000000059,0.28 l1.34,1 c-2.5,1.18 -6.13,0.6400000000000079 -6.2,0.630000000000007 l-0.4700000000000003,-0.07 c0,0.07 -0.06000000000000068,0.15000000000000024 -0.1,0.23 l0.9400000000000006,2.2 a8.31,8.31 0 0 0 5.35,0.8300000000000006 a7.33,7.33 0 0 0 1.36,-0.3700000000000018 a13.89,13.89 0 0 0 4.3,-2.7800000000000002 a16.66,16.66 0 0 0 3.23,-4.13 c2.77,-5.4 3.22,-13.44 3.22,-16.68 v-1.7000000000000002 M220.48049337387084,71.62839486598969 l-1.46,-3.77 c-0.14,0.18000000000000024 -0.27,0.33000000000000396 -0.3000000000000003,0.32000000000000367 a1.84,1.84 0 0 1 -0.5,-0.3600000000000003 a28.73,28.73 0 0 1 0.45,3.55 a1.6700000000000008,1.6700000000000008 0 0 1 1.81,0.26 m-2.3,0.7000000000000006 a39.31,39.31 0 0 0 -0.620000000000007,-5.25 l-0.08000000000000022,-0.12000000000000002 a1.6400000000000001,1.6400000000000001 0 0 1 -0.14,-0.22000000000000094 a6.58,6.58 0 0 1 -0.3500000000000003,1 a2.13,2.13 0 0 1 -0.5,0.77 a3.62,3.62 0 0 1 -1.23,-1.52 a3.75,3.75 0 0 1 -1.22,1.5 a2.36,2.36 0 0 1 -0.5,-0.77 c-0.08000000000000022,-0.18000000000000024 -0.14,-0.3500000000000003 -0.2,-0.52 a40.86,40.86 0 0 0 -0.55,5.17 c-1.5,-1 -2.4,0 -2.1,0.7000000000000006 a0.8600000000000046,0.8600000000000046 0 0 0 0.1,0.16000000000000192 a0.93,0.93 0 0 0 0.740000000000007,0.39000000000000395 a5.07,5.07 0 0 1 1.85,0.4300000000000003 a5.8100000000000005,5.8100000000000005 0 0 1 2.1,1.73 a5.83,5.83 0 0 1 2.11,-1.73 a5,5 0 0 1 1.84,-0.4300000000000003 a1,1 0 0 0 0.750000000000007,-0.39000000000000395 a0.8600000000000046,0.8600000000000046 0 0 0 0.1,-0.16000000000000192 c0.3000000000000003,-0.7000000000000006 -0.6000000000000006,-1.6800000000000006 -2.1,-0.7000000000000006 m-7.7,-0.7000000000000006 a1.6800000000000006,1.6800000000000006 0 0 1 1.82,-0.26 a35.57,35.57 0 0 1 0.4,-3.64 a1.79,1.79 0 0 1 -0.6000000000000006,0.45 s-0.1,-0.05000000000000059 -0.16000000000000192,-0.13 l-1.46,3.58 m0.15000000000000024,-2.26 v-0.06000000000000068 a40.27,40.27 0 0 1 0.870000000000007,-2.1 c0,-0.1 -0.07,-0.2 -0.1,-0.32000000000000367 c-0.3400000000000045,0.06000000000000068 -0.7000000000000006,0.1 -1,0.15000000000000024 s-3.68,0.55 -6.2,-0.620000000000007 c0.3000000000000003,-0.22000000000000094 0.880000000000007,-0.7000000000000006 1.6500000000000008,-1.2 v-0.15000000000000024 a3.06,3.06 0 0 1 -1.62,0.3800000000000035 a3.93,3.93 0 0 1 0.27,-1.49 a2,2 0 0 1 -1,0 a14.74,14.74 0 0 1 1.19,-2.67 a29.39,29.39 0 0 1 2.74,-3.87 a2,2 0 0 1 0.4800000000000003,-0.870000000000007 l0.15000000000000024,-0.17 l-0.3000000000000003,-0.2400000000000002 a0.7100000000000006,0.7100000000000006 0 0 1 -0.25,0.19000000000000186 a1.53,1.53 0 0 1 -0.620000000000007,0.18000000000000024 a0.630000000000007,0.630000000000007 0 0 1 -0.6100000000000046,-0.2 a0.620000000000007,0.620000000000007 0 0 1 -0.46,-0.39000000000000395 a0.4900000000000003,0.4900000000000003 0 0 1 0,-0.12000000000000002 a0.4100000000000003,0.4100000000000003 0 0 1 -0.46,-0.06000000000000068 c-0.22000000000000094,-0.2 0.1,-1.1600000000000001 1.1400000000000001,-2.16 a7.1,7.1 0 0 1 2.08,-1.3900000000000001 c0.5,-0.22000000000000094 0.8,0.2 0.54,0.5 a1.52,1.52 0 0 0 -0.21000000000000021,1.61 a4.4,4.4 0 0 0 0.46,-0.17 a0.740000000000007,0.740000000000007 0 0 0 0.4200000000000003,-0.2900000000000003 v-0.1 h-0.4400000000000035 c0.22000000000000094,-0.55 -0.12000000000000002,-1.9 0.1,-2.7800000000000002 a1.3900000000000001,1.3900000000000001 0 0 1 -0.3000000000000003,0.17 a10.65,10.65 0 0 1 -0.07,-2.68 a1.81,1.81 0 0 0 -0.55,-0.750000000000007 a8.53,8.53 0 0 1 -1.4,2.2800000000000002 a6.68,6.68 0 0 0 -2.01,3.48 a4.6,4.6 0 0 1 -0.3600000000000003,1 a2.56,2.56 0 0 0 -0.32000000000000367,1.11 a32.59,32.59 0 0 1 -0.3700000000000018,5.88 a6.2,6.2 0 0 1 -0.8,2.13 l-0.08000000000000022,-0.06000000000000068 a5.11,5.11 0 0 1 -0.9,2 s-0.4800000000000003,-0.9400000000000006 -1.33,-8.13 c-0.9500000000000006,-7.9 -1.4300000000000002,-16.16 -1.4300000000000002,-16.16 a12.53,12.53 0 0 1 0.6600000000000084,-4.42 a15.22,15.22 0 0 1 2.93,-4.73 a1.73,1.73 0 0 1 1.62,-0.5 l-0.32000000000000367,-0.4400000000000035 l-1.7000000000000002,-2.22 c-3.8600000000000003,6.8 -3.77,14.93 -3.77,15 v0.870000000000007 l-0.680000000000009,-0.3600000000000003 a33.5,33.5 0 0 1 -5.35,-3.59 c0,0.8200000000000006 -0.12000000000000002,3.62 -0.12000000000000002,3.62 v1.7000000000000002 c0,3.25 0.5800000000000006,11.2 3.23,16.7 a16.27,16.27 0 0 0 3.1,4.17 a12.16,12.16 0 0 0 4.7,2.75 l0.4,0.13 a8.33,8.33 0 0 0 6.39,-0.5700000000000006 m-17.68,-29.4 a35.42,35.42 0 0 0 5.3100000000000005,3.66 a32.44,32.44 0 0 1 4,-15.21 l-1.06,-1.4 a2.88,2.88 0 0 1 -1.32,0.740000000000007 a5.93,5.93 0 0 0 -0.6500000000000079,-2.92 a11.6,11.6 0 0 1 -3,-0.28 c-2,4.2 -2.94,9 -3.3,15.42 m3.3200000000000003,-15.46 a4.19,4.19 0 0 0 1.17,-1 a5.2,5.2 0 0 0 0.45,-0.7600000000000074 l-0.4,-0.52 c-0.4400000000000035,0.750000000000007 -0.8500000000000006,1.5 -1.22,2.3 m2,-2.5 a1.9100000000000001,1.9100000000000001 0 0 1 0.19000000000000186,-0.28 l-1.6800000000000006,-2.2 a2.55,2.55 0 0 1 -0.4300000000000003,-1.6300000000000003 a14,14 0 0 1 -2,-1.13 l3.93,5.22 m0.13,-1 l0.32000000000000367,0.4200000000000003 a13.88,13.88 0 0 1 6.24,-4.43 a1.23,1.23 0 0 1 0.25,-1.6900000000000008 a1.46,1.46 0 0 1 1.44,1.1400000000000001 a30.94,30.94 0 0 1 7,-1 a2.36,2.36 0 0 1 1.3800000000000001,-2.25 a0.5700000000000006,0.5700000000000006 0 0 1 0.2900000000000003,-0.46 a0.5900000000000006,0.5900000000000006 0 0 1 0.3000000000000003,0.46 a2.36,2.36 0 0 1 1.37,2.25 a30.94,30.94 0 0 1 7,1 a1.46,1.46 0 0 1 1.44,-1.1400000000000001 a1.22,1.22 0 0 1 0.25,1.6900000000000008 a14.2,14.2 0 0 1 6.3100000000000005,4.49 l0.33000000000000396,-0.4400000000000035 a14.9,14.9 0 0 0 -5.76,-4.22 a1.6600000000000001,1.6600000000000001 0 0 0 -0.4100000000000003,-1.7600000000000002 a0.750000000000007,0.750000000000007 0 0 0 -0.3500000000000003,-0.6400000000000079 a0.9400000000000006,0.9400000000000006 0 0 0 -0.740000000000007,0.2900000000000003 a2.08,2.08 0 0 0 -1.61,1.1 a32.85,32.85 0 0 0 -5.86,-0.78 a2.45,2.45 0 0 0 -1.46,-2.14 a0.78,0.78 0 0 0 -1.54,0 a2.44,2.44 0 0 0 -1.47,2.14 a32.85,32.85 0 0 0 -5.86,0.78 A2.08,2.08 0 0 0 205.60049337387085,14.728394865989685 a1,1 0 0 0 -0.740000000000007,-0.3000000000000003 a0.78,0.78 0 0 0 -0.3600000000000003,0.6500000000000079 a1.6600000000000001,1.6600000000000001 0 0 0 -0.4200000000000003,1.75 a14.28,14.28 0 0 0 -5.68,4.18 m33.8,0.8 l0.17,0.3000000000000003 l4.06,-5.4 a13.65,13.65 0 0 1 -2,1.1400000000000001 a2.45,2.45 0 0 1 -0.4400000000000035,1.62 c-0.06000000000000068,0.1 -0.7600000000000074,1 -1.8,2.35 m0.8500000000000006,0.5 l-0.3800000000000035,0.5 a3.62,3.62 0 0 0 1.6,1.6800000000000006 a25.82,25.82 0 0 0 -1.22,-2.18 m-6,6.9 c0.16000000000000192,-0.22000000000000094 0.93,-1.25 2,-2.64 a1.78,1.78 0 0 1 -0.21000000000000021,-0.27 l-2.15,2.88 a21.85,21.85 0 0 0 -1.34,2 c0,0.2 1.33,-1.4 1.7200000000000002,-1.94 m-13.32,37 a5.37,5.37 0 0 0 0.4300000000000003,1 a3,3 0 0 0 0.8900000000000079,-1.82 c-0.13,0.1 -0.3500000000000003,0.28 -0.53,0.4 s-0.6000000000000006,0.32000000000000367 -0.8,0.4200000000000003 m-8.68,0 a16.57,16.57 0 0 0 5.42,0.28 a9.2,9.2 0 0 0 4.28,-1.56 a9.4,9.4 0 0 1 -1,-1 a7.61,7.61 0 0 1 -1.47,1 a19.29,19.29 0 0 1 -4.91,1.07 a28.81,28.81 0 0 0 4.91,-1.52 a9,9 0 0 0 1.1400000000000001,-0.8600000000000046 l-1.3,-1.2 a6.78,6.78 0 0 1 -0.670000000000009,0.53 a9.42,9.42 0 0 1 -1.6900000000000008,0.8200000000000006 a21.56,21.56 0 0 0 -4.69,2.45 m4.18,-21.4 c0.2,-0.6000000000000006 0.4,-4.44 -1.1,-6.1 a30.07,30.07 0 0 1 1.11,6.1 m-2.88,-9.53 a4.15,4.15 0 0 0 0.05000000000000059,1.61 a6.29,6.29 0 0 0 0.3600000000000003,0.92 a6.49,6.49 0 0 0 -0.4100000000000003,-2.5300000000000002 m0.77,1.23 a11.15,11.15 0 0 0 0.5900000000000006,3.22 a6.2,6.2 0 0 0 -0.5900000000000006,-3.22 m-5.57,-10.12 l2.13,2.85 c0.4,0.53 1.73,2.14 1.7200000000000002,1.9300000000000002 a18.14,18.14 0 0 0 -1.34,-2 l-2.3,-3.1 l-0.2,0.3000000000000003 m-1,-5.26 c-0.1,-0.13 -0.4,-0.3800000000000035 -1.12,0.13 c-1.27,1.1 -0.8600000000000046,2.1 -2.16,3 a6.75,6.75 0 0 0 1.15,0.11000000000000022 a4.73,4.73 0 0 0 0.56,0 l0.6000000000000006,-0.1 a5.43,5.43 0 0 1 0.7300000000000006,2.6500000000000004 c1.53,-0.8 0.9,-3.42 2.33,-3.4 l-2.1,-2.35 m29.16,-0.6000000000000006 a12.72,12.72 0 0 0 -3.7,-2.4 c-4.1,-1.8 -9.28,-1.8 -10.77,-1.8 c-1.48,0 -6.68,0 -10.77,1.8 a12.72,12.72 0 0 0 -3.7,2.4 L203.16049337387085,23.228394865989685 a0.8500000000000006,0.8500000000000006 0 0 1 0.19000000000000186,1 c2.8200000000000003,-1.9500000000000002 6.1,-2.9 11.82,-2.94 h0.26 c5.66,0 9,1 11.8,2.9 a0.8500000000000006,0.8500000000000006 0 0 1 0.19000000000000186,-1 c0.4700000000000003,-0.5700000000000006 2.33,-2.64 2.33,-2.64 m-0.8,4.36 a3.44,3.44 0 0 0 0.9400000000000006,1.82 l0.25,0.16000000000000192 a5.46,5.46 0 0 1 0.740000000000007,-2.66 a5.74,5.74 0 0 0 2.3200000000000003,0 c-1.18,-0.8 -0.92,-1.7000000000000002 -1.8,-2.66 a3.17,3.17 0 0 0 -0.32000000000000367,-0.3100000000000035 a1.34,1.34 0 0 0 -0.7100000000000006,-0.3100000000000035 a0.5,0.5 0 0 0 -0.4100000000000003,0.18000000000000024 l-2.15,2.35 c0.7300000000000006,0 0.92,0.6400000000000079 1.13,1.4 m-1,1.8 l0.3700000000000018,-0.5 a15.9,15.9 0 0 0 -6.85,-3.47 a18,18 0 0 0 -4.24,-0.4200000000000003 c-0.7600000000000074,0 -1.25,0.3000000000000003 -1.25,0.77 c-0.4700000000000003,-0.08000000000000022 -0.6000000000000006,-0.680000000000009 -0.6600000000000084,-0.8 c0,0.25 -0.27,0.7300000000000006 -0.6500000000000079,0.8 c0,-0.4700000000000003 -0.5,-0.7600000000000074 -1.25,-0.77 A18,18 0 0 0 209.16049337387085,22.728394865989685 a15.26,15.26 0 0 0 -6.85,3.47 l0.3700000000000018,0.5 a14,14 0 0 1 5.6400000000000015,-3.16 a18.14,18.14 0 0 1 5,-0.6600000000000084 c0.9,0 1,0.55 0.9,0.8300000000000006 a1.47,1.47 0 0 0 1.12,-0.54 a1.53,1.53 0 0 0 1.13,0.54 c-0.1,-0.28 0,-0.8 0.9,-0.8300000000000006 a18.14,18.14 0 0 1 4.95,0.6600000000000084 a14.92,14.92 0 0 1 5.63,3.2 m-6.6,8 a1,1 0 0 0 0.6000000000000006,-0.14 a0.630000000000007,0.630000000000007 0 0 0 0.25,-0.2400000000000002 c1.3,-1.87 3.7,-4.87 5.48,-7.23 a14.59,14.59 0 0 0 -10.28,-3.77 c-0.32000000000000367,0 -0.680000000000009,0.28 -0.28,0.8 a2.36,2.36 0 0 1 -1.83,-0.3600000000000003 a2.39,2.39 0 0 1 -1.84,0.3600000000000003 c0.4,-0.53 0,-0.78 -0.28,-0.8 c-1.3800000000000001,-0.1 -6.9,0.4400000000000035 -10.23,3.7 l5.75,7.6 a0.7100000000000006,0.7100000000000006 0 0 0 0.5,0.22000000000000094 h0.1 a0.93,0.93 0 0 0 0.5900000000000006,-0.3700000000000018 c0.4,-0.4300000000000003 0.6000000000000006,-0.680000000000009 1,-1.07 c0.750000000000007,-0.78 1.46,-1.36 1.58,-1.47 a1.09,1.09 0 0 0 0.4300000000000003,-0.78 c0,-0.27 -0.2400000000000002,-0.3800000000000035 -0.3700000000000018,-0.55 l-0.07,0.1 a1.75,1.75 0 0 1 -0.26,-0.52 l-0.08000000000000022,0.2 s-0.28,-0.680000000000009 -0.7300000000000006,-0.620000000000007 a1.6700000000000008,1.6700000000000008 0 0 1 -1.05,-0.19000000000000186 s-0.07,0.2 0,0.4300000000000003 a1.21,1.21 0 0 1 0.26,-1.87 a3.72,3.72 0 0 1 1,-0.53 a1,1 0 0 0 0.32000000000000367,-0.28 a2.11,2.11 0 0 1 1.08,-0.5700000000000006 a7.84,7.84 0 0 1 2.15,-0.18000000000000024 a4.11,4.11 0 0 1 1.3,0.28 a4.9,4.9 0 0 1 1.44,1.22 a11.83,11.83 0 0 1 1,2.05 l0.880000000000007,2.12 a10.81,10.81 0 0 0 1.11,2.2 a0.6500000000000079,0.6500000000000079 0 0 0 0.5800000000000006,0.2900000000000003 m-11.3,9.9 a2,2 0 0 0 0.8900000000000079,1.58 a5.54,5.54 0 0 0 -0.8900000000000079,-1.58 m7,6 a2.79,2.79 0 0 1 -0.5900000000000006,0.7100000000000006 a2.21,2.21 0 0 0 0.1,-0.4800000000000003 a3.85,3.85 0 0 1 -0.5800000000000006,0.750000000000007 a1.87,1.87 0 0 0 -0.53,0.880000000000007 a2.55,2.55 0 0 1 0.6600000000000084,-0.4800000000000003 A2.22,2.22 0 0 0 217.16049337387085,50.728394865989685 m0.3700000000000018,5.63 a8.4,8.4 0 0 0 -0.93,-1.08 a10.25,10.25 0 0 1 0.39000000000000395,1.08 h0.06000000000000068 a0.3100000000000035,0.3100000000000035 0 0 1 0.19000000000000186,0 a0.880000000000007,0.880000000000007 0 0 1 0.2,0 h0.1 M217.16049337387085,60.92839486598969 a31.43,31.43 0 0 1 1,1 l0.4200000000000003,-0.46 l-1,-0.9 l-0.4200000000000003,0.4 m-1.7600000000000002,-1.8 c0.4300000000000003,0.45 1,1.06 1.4,1.44 l0.4,-0.4 l-1.5,-1.37 l-0.3000000000000003,0.33000000000000396 m-0.16000000000000192,-0.8300000000000006 v0.5 l0.2400000000000002,-0.26 a2.8200000000000003,2.8200000000000003 0 0 1 -0.25,-0.25 m0,-0.28 l0.3700000000000018,-0.4300000000000003 a4.43,4.43 0 0 0 -0.3800000000000035,-1.45 v1.9 m0.620000000000007,-2.52 c0.07,0.4 0.12000000000000002,1.3800000000000001 0.14,1.7000000000000002 l0.3400000000000045,-0.3500000000000003 a3.2800000000000002,3.2800000000000002 0 0 0 -0.4800000000000003,-1.34 m-0.670000000000009,-0.4 a2.2800000000000002,2.2800000000000002 0 0 0 0.32000000000000367,-0.18000000000000024 a1,1 0 0 0 0.45,-0.4300000000000003 a0.680000000000009,0.680000000000009 0 0 0 0.07,-0.4800000000000003 a1,1 0 0 1 -0.2900000000000003,0.4200000000000003 a3.85,3.85 0 0 0 -0.3500000000000003,0.3500000000000003 a1.94,1.94 0 0 0 -0.2,0.32000000000000367 m-0.3500000000000003,-2.7600000000000002 c0,-0.7000000000000006 -0.7600000000000074,-0.78 -0.93,-1.46 c-0.1,1 0.5800000000000006,1 0.93,1.46 m0.4,1.57 a0.8300000000000006,0.8300000000000006 0 0 1 0.2900000000000003,-0.3000000000000003 a7.72,7.72 0 0 0 1.18,-0.870000000000007 a1.6600000000000001,1.6600000000000001 0 0 0 0.2400000000000002,-0.54 a1.45,1.45 0 0 1 -0.5,0.45 a4.67,4.67 0 0 0 -1.1,0.8 a0.6500000000000079,0.6500000000000079 0 0 0 -0.1,0.27 a0.56,0.56 0 0 0 -0.06000000000000068,-0.2 c-0.2,-0.4400000000000035 -0.8400000000000006,-0.620000000000007 -1.22,-1.06 c-0.25,-0.28 -0.26,-0.4 -0.26,-0.4 a1.06,1.06 0 0 0 0.17,0.680000000000009 a4,4 0 0 0 0.8500000000000006,0.6900000000000094 a1.42,1.42 0 0 1 0.51,0.4800000000000003 m-0.32000000000000367,0.9 a1,1 0 0 0 -0.4700000000000003,-0.7100000000000006 a1.15,1.15 0 0 0 0.4700000000000003,0.7100000000000006 m-0.2,2.8 c0,-0.4200000000000003 0,-0.880000000000007 -0.06000000000000068,-1.08 a2.27,2.27 0 0 0 -0.28,0.7300000000000006 l0.3400000000000045,0.3500000000000003 m-2.3,-1.1400000000000001 c0.1,0 0.4,-0.17 0.5700000000000006,-0.2 h0.12000000000000002 a8.89,8.89 0 0 1 0.3400000000000045,-1 a9,9 0 0 0 -1,1.27 m1.24,0.08000000000000022 l0.27,0.26 a8.13,8.13 0 0 0 0.14,-1.48 a3.24,3.24 0 0 0 -0.4100000000000003,1.22 m0,-5.92 a1.07,1.07 0 0 0 -0.11000000000000022,-0.4200000000000003 a2.79,2.79 0 0 0 -0.3700000000000018,-0.4 a0.4,0.4 0 0 1 -0.09000000000000138,-0.16000000000000192 a1.51,1.51 0 0 0 0.06000000000000068,0.51 a0.630000000000007,0.630000000000007 0 0 0 0.27,0.3500000000000003 a0.81,0.81 0 0 0 0.2400000000000002,0.12000000000000002 m-0.3000000000000003,7.28 l-3.13,2.94 l0.54,0.56 c0.06000000000000068,0.06000000000000068 0.1,0.06000000000000068 0.15000000000000024,0 l3.5700000000000003,-3.26 v-0.08000000000000022 c0,-0.02000000000000026 -0.46,-0.52 -0.7000000000000006,-0.77 s-0.6500000000000079,-0.680000000000009 -0.870000000000007,-0.6000000000000006 a4.71,4.71 0 0 1 -0.5900000000000006,0.14 a3.23,3.23 0 0 1 -1.4300000000000002,-0.09000000000000138 h-0.07 v0.4300000000000003 a7.33,7.33 0 0 0 1.3,0.06000000000000068 c0.2400000000000002,0 0.4,0.08000000000000022 0.2,0.32000000000000367 L210.16049337387085,59.728394865989685 c-0.4300000000000003,0.4 -0.46,0.5 -0.33000000000000396,0.6400000000000079 l0.14,0.13 l0.8300000000000006,-0.740000000000007 L212.16049337387085,58.52839486598968 l1,-0.9500000000000006 a0.1,0.1 0 0 1 0.14,0 l0.18000000000000024,0.2 a0.13,0.13 0 0 1 0,0.14 m4.8,-0.6600000000000084 a8.19,8.19 0 0 0 1.25,0 v-0.4200000000000003 a3.21,3.21 0 0 1 -1.4300000000000002,0.09000000000000138 c-0.32000000000000367,-0.07 -0.33000000000000396,-0.08000000000000022 -0.5800000000000006,-0.15000000000000024 s-0.6000000000000006,0.3000000000000003 -0.880000000000007,0.6000000000000006 l-0.7000000000000006,0.77 a0.05000000000000059,0.05000000000000059 0 0 0 0,0.08000000000000022 l3.56,3.26 a0.09000000000000138,0.09000000000000138 0 0 0 0.15000000000000024,0 l0.55,-0.5700000000000006 l-3.13,-2.94 c-0.05000000000000059,0 -0.06000000000000068,-0.1 0,-0.13 l0.18000000000000024,-0.2 a0.11000000000000022,0.11000000000000022 0 0 1 0.14,0 c0,0.05000000000000059 1,1 1,1 L219.56049337387086,59.728394865989685 l0.8400000000000006,0.740000000000007 l0.13,-0.14 c0.13,-0.14 0.1,-0.23 -0.32000000000000367,-0.6400000000000079 l-2.16,-2.15 c-0.2,-0.2400000000000002 -0.06000000000000068,-0.32000000000000367 0.18000000000000024,-0.32000000000000367 m-0.630000000000007,-8.38 a3.4,3.4 0 0 0 0.6600000000000084,-2 a1.07,1.07 0 0 1 0.32000000000000367,0.4400000000000035 a10.6,10.6 0 0 0 1,-3.12 c0.2,0.1 0,0 0.26,0.16000000000000192 a10.4,10.4 0 0 0 0.670000000000009,-3.08 c0.08000000000000022,0 0.2,0 0.26,0.1 c0.1,-0.740000000000007 0.22000000000000094,-1.92 0.25,-2.75 a9.54,9.54 0 0 0 -0.3000000000000003,-3 a8.47,8.47 0 0 0 -0.93,-2.06 a0.7100000000000006,0.7100000000000006 0 0 0 -0.26,0.2 c-0.14,-0.4 -0.5,-1.4 -0.7000000000000006,-1.75 c-0.4700000000000003,-0.9 -0.7000000000000006,-1.48 -1.17,-1.8 a3.3,3.3 0 0 0 0.5800000000000006,0 a8.25,8.25 0 0 0 -0.79,-0.77 c0.12000000000000002,-0.08000000000000022 0.32000000000000367,-0.07 0.6600000000000084,0 c-0.4800000000000003,-0.4400000000000035 -0.6400000000000079,-1.1 -1.86,-1.56 a5.59,5.59 0 0 1 0.680000000000009,0 a2.1,2.1 0 0 0 -1.1400000000000001,-0.81 c-1.26,-0.25 -3,-0.3000000000000003 -3.8,0.670000000000009 a1.83,1.83 0 0 1 -0.4700000000000003,0.18000000000000024 a0.880000000000007,0.880000000000007 0 0 0 -0.23,0.12000000000000002 c-0.14,0.1 -0.17,0.2400000000000002 0.1,0.620000000000007 c-0.3500000000000003,-0.05000000000000059 -0.4400000000000035,-0.3800000000000035 -0.5,-0.3500000000000003 a1.24,1.24 0 0 0 -0.3800000000000035,0.3800000000000035 a1.4,1.4 0 0 0 -0.19000000000000186,0.7100000000000006 a0.2400000000000002,0.2400000000000002 0 0 0 0.39000000000000395,-0.18000000000000024 c0,-0.12000000000000002 0.5800000000000006,-0.17 0.77,-0.17 s0.53,0.06000000000000068 0.870000000000007,0 c-0.12000000000000002,0.05000000000000059 -0.5,0.16000000000000192 -0.6500000000000079,0.2 s-0.17,0.2 0,0.22000000000000094 s0.22000000000000094,-0.05000000000000059 0.3800000000000035,-0.1 s0,0.22000000000000094 0.06000000000000068,0.32000000000000367 c1,-0.23 1.08,0.8500000000000006 2.16,0.6400000000000079 c-0.5,-0.4 -0.9400000000000006,-1.06 -1.34,-1.26 c1.06,0.17 1.6400000000000001,1.12 2.8,1.17 a2.07,2.07 0 0 0 -0.14,-0.3100000000000035 c0.4,0 0.670000000000009,0.3000000000000003 0.8,0.3000000000000003 a1.71,1.71 0 0 1 -0.92,0.3400000000000045 c0.08000000000000022,0.15000000000000024 0.5,0.18000000000000024 0.6500000000000079,0.2 a1,1 0 0 1 -1,0.21000000000000021 a4.19,4.19 0 0 1 -1.1400000000000001,1 a2,2 0 0 1 0,-0.3500000000000003 c-0.5,0.28 -0.8200000000000006,0.8 -1.2,0.9500000000000006 c0.1,-0.2 0.2,-0.5 0.28,-0.670000000000009 a16.66,16.66 0 0 0 -3,3.15 a6.28,6.28 0 0 0 -0.620000000000007,3.5300000000000002 c0,0.8600000000000046 0.4200000000000003,3.3 0.5,3.8 l0.26,-0.12000000000000002 a20.53,20.53 0 0 0 1.73,5.13 a0.81,0.81 0 0 1 0.28,-0.3800000000000035 a2.43,2.43 0 0 0 0.7300000000000006,1.3800000000000001 a1.45,1.45 0 0 1 0.16000000000000192,-0.630000000000007 c0.1,0.3500000000000003 0.05000000000000059,1.4300000000000002 0.670000000000009,2 a3,3 0 0 1 0.15000000000000024,-0.9400000000000006 a8.23,8.23 0 0 0 0.3000000000000003,1.13 a2.14,2.14 0 0 0 0.6600000000000084,0.92 a3.5700000000000003,3.5700000000000003 0 0 1 0.13,-1.1600000000000001 a3.17,3.17 0 0 1 0.4900000000000003,1.46 c0.630000000000007,-0.5 0.880000000000007,-2.07 0.880000000000007,-2.07 a1.48,1.48 0 0 1 0.3100000000000035,0.6000000000000006 a4.18,4.18 0 0 0 0.880000000000007,-1.9 a3.35,3.35 0 0 1 0,1 m-10.18,-6.86 a9.51,9.51 0 0 1 1.34,4.25 c0.56,-1.45 -0.3400000000000045,-4.33 -1.2,-5.93 a1.26,1.26 0 0 1 -0.23,0.8 c-0.17,-1.84 -1.32,-3.18 -1.52,-4.46 a3.8600000000000003,3.8600000000000003 0 0 1 -0.13,0.56 a9.8,9.8 0 0 1 -1,-2.62 a1.32,1.32 0 0 0 -0.21000000000000021,0.7600000000000074 c-0.5800000000000006,-1.6 0,-2.24 0.14,-2.33 c0.4400000000000035,-0.25 1,0.15000000000000024 1.36,0.6000000000000006 c0.6000000000000006,0.670000000000009 1.24,2 3.2800000000000002,2.05 c0.33000000000000396,0 0.46,-0.07 0.3000000000000003,-0.1 c-1.7000000000000002,-0.3000000000000003 -2,-1 -3.4,-2.5300000000000002 c-0.870000000000007,-0.9500000000000006 -1.75,-1.5 -2.7800000000000002,-0.28 a13,13 0 0 0 -3,6 a11.29,11.29 0 0 0 -0.09000000000000138,3.89 c0.23,-0.08000000000000022 0.25,-0.15000000000000024 0.25,-0.15000000000000024 a12.26,12.26 0 0 0 0.7300000000000006,3.38 a4.67,4.67 0 0 0 0.32000000000000367,-1.6400000000000001 a4.92,4.92 0 0 0 0.8500000000000006,1.6900000000000008 a5.16,5.16 0 0 0 0.09000000000000138,-2 a3.72,3.72 0 0 0 0.9400000000000006,1.53 a7.63,7.63 0 0 0 0.21000000000000021,-3.35 a16,16 0 0 1 0.28,2 a1.77,1.77 0 0 0 0.4300000000000003,0.28 c0.08000000000000022,-0.22000000000000094 0.3000000000000003,-0.55 -0.07,-3.34 c0.93,3 0.4,3.84 0.32000000000000367,4.06 a2,2 0 0 1 -0.6500000000000079,-0.56 a3.16,3.16 0 0 1 -0.3100000000000035,1.6 a2.21,2.21 0 0 1 -0.79,-0.79 a4,4 0 0 1 -0.21000000000000021,1.52 a4.8,4.8 0 0 1 -0.880000000000007,-1.35 a3.79,3.79 0 0 1 -0.4400000000000035,1.6400000000000001 c-0.78,-1 -1,-3.92 -1,-3.92 l-0.12000000000000002,0.08000000000000022 c0,0.7000000000000006 0.13,1.8 0.2400000000000002,3.05 l0.4,4.53 c0.3000000000000003,3.47 0.7000000000000006,6.94 1.1600000000000001,10.4 a5.77,5.77 0 0 0 0.16000000000000192,0.880000000000007 a11.26,11.26 0 0 0 0.07,-2.49 a5.24,5.24 0 0 0 0.2400000000000002,-1.55 c0,-0.4200000000000003 -0.5,-5.75 -0.6500000000000079,-7.84 c0,-0.26 -0.05000000000000059,-0.8300000000000006 -0.05000000000000059,-0.8300000000000006 s0,0.14 0.05000000000000059,0.22000000000000094 c0.16000000000000192,0.8 0.3000000000000003,1.6 0.4,2.38 c0.08000000000000022,0.4800000000000003 0.15000000000000024,1 0.22000000000000094,1.5 a40.55,40.55 0 0 1 0.4300000000000003,4.66 a4.92,4.92 0 0 1 -0.27,1.5 a6.86,6.86 0 0 1 -0.22000000000000094,3.13 a0.53,0.53 0 0 1 -0.22000000000000094,-0.19000000000000186 a12.99,12.99 0 0 0 0.4,1.7000000000000002 a7.58,7.58 0 0 0 0.52,-3.77 a7.3100000000000005,7.3100000000000005 0 0 0 0.3600000000000003,-1.73 c0,-0.32000000000000367 0,-1.34 -0.14,-2.62 l-0.53,-6.8 v-0.4 c0,-0.02000000000000026 0,0.2 0.07,0.3000000000000003 a55.57,55.57 0 0 1 1.05,8.9 a8.28,8.28 0 0 1 -0.4200000000000003,2.5300000000000002 a5.67,5.67 0 0 1 0.05000000000000059,1.21 a3,3 0 0 1 -0.07,0.8 c0.23,-0.52 1,-2.25 0.7000000000000006,-7.68 v-0.4 c-0.2,-3.7800000000000002 -0.5,-6.25 -0.5,-6.25 a32.11,32.11 0 0 1 0.870000000000007,6 l0.07,-0.13 a7.33,7.33 0 0 0 0.3800000000000035,-3.08 a46.63,46.63 0 0 0 -0.3700000000000018,-3.6 l0.06000000000000068,0.16000000000000192 a17.47,17.47 0 0 1 0.4400000000000035,1.83 a18.82,18.82 0 0 1 0.3000000000000003,2.13 v0.3000000000000003 c0.750000000000007,-1.13 0.4300000000000003,-3.38 0.06000000000000068,-5.72 a10.76,10.76 0 0 1 0.77,4.44 c1.13,-1.06 0.52,-3.18 0.1,-5.6 a9.34,9.34 0 0 1 1,4.37 c0.92,-1.2 0.5700000000000006,-2.7800000000000002 -0.25,-5.88 a10.57,10.57 0 0 1 1.23,4 c0.6000000000000006,-1.4 -0.1,-3.73 -0.7000000000000006,-5.62 m1.2,10.92 c0.18000000000000024,-0.3000000000000003 -0.08000000000000022,-0.3700000000000018 -0.6000000000000006,0 a7.7,7.7 0 0 0 -2,1.6600000000000001 c-0.13,0.18000000000000024 -0.1,0.28 0.14,0.05000000000000059 c0.55,-0.56 1.3800000000000001,-1.32 1.36,-1 a2.6500000000000004,2.6500000000000004 0 0 0 0.16000000000000192,1 a0.92,0.92 0 0 0 0.25,-0.06000000000000068 l0.7200000000000006,-0.2 a1.6300000000000003,1.6300000000000003 0 0 1 -0.07,-1.42 m-0.3400000000000045,3.75 a1.6600000000000001,1.6600000000000001 0 0 0 -0.54,1.13 a0.46,0.46 0 0 0 0.4800000000000003,0.5 c0.4,-0.05000000000000059 0.2,-0.5 0.4400000000000035,-0.22000000000000094 c0.1,0.1 0.4,-0.25 0.5,-0.3400000000000045 c-0.18000000000000024,0 -0.4400000000000035,0.06000000000000068 -0.4,-0.2 a1.13,1.13 0 0 1 0.2900000000000003,-0.51 c0.1,-0.14 0.46,-0.8 0.680000000000009,-0.7000000000000006 a1.56,1.56 0 0 1 -0.14,1.06 c-0.3700000000000018,0.8 -0.4300000000000003,1.32 -0.17,1.48 a0.6900000000000094,0.6900000000000094 0 0 0 0.3000000000000003,0.79 a1.05,1.05 0 0 1 0,-0.5800000000000006 s0,-0.12000000000000002 -0.2,-0.2 a2.41,2.41 0 0 0 0.3800000000000035,0 c0.15000000000000024,0 0.33000000000000396,0 0.3600000000000003,-0.3500000000000003 v-0.3000000000000003 a11.46,11.46 0 0 1 0.2,-1.18 c0.07,-0.3600000000000003 0.17,-1.24 0.17,-1.24 a0.45,0.45 0 0 1 0.17,0 a0.3800000000000035,0.3800000000000035 0 0 1 0.3400000000000045,0.27 a0.55,0.55 0 0 1 0,0.3000000000000003 a0.39000000000000395,0.39000000000000395 0 0 0 0.23,-0.32000000000000367 a0.46,0.46 0 0 0 0.21000000000000021,-0.3000000000000003 c0.05000000000000059,-0.32000000000000367 -0.32000000000000367,-0.6400000000000079 -0.3500000000000003,-0.670000000000009 c-0.22000000000000094,-0.17 -0.15000000000000024,-0.5 -0.05000000000000059,-0.77 l0.12000000000000002,-0.3400000000000045 a1.56,1.56 0 0 0 0.4300000000000003,0.3700000000000018 a1.47,1.47 0 0 0 1,0.27 a2.51,2.51 0 0 1 -0.16000000000000192,-0.6400000000000079 a6.11,6.11 0 0 1 0,-0.8600000000000046 l0.4,0.4 a6.46,6.46 0 0 0 0.08000000000000022,-2.2 a8.74,8.74 0 0 0 -0.6000000000000006,-2.56 a4.51,4.51 0 0 0 -0.33000000000000396,-0.750000000000007 a0.91,0.91 0 0 1 -0.3100000000000035,0.4400000000000035 a6.07,6.07 0 0 1 -1,-1.7400000000000002 a1.9300000000000002,1.9300000000000002 0 0 1 -0.32000000000000367,0.4 l-0.06000000000000068,0.06000000000000068 v-0.08000000000000022 a2.18,2.18 0 0 0 -0.51,-1 a2.16,2.16 0 0 1 -0.3800000000000035,-0.620000000000007 a5.69,5.69 0 0 0 -0.18000000000000024,1.35 a3.23,3.23 0 0 1 -0.17,1.05 l0.2,-0.12000000000000002 c0.1,-0.06000000000000068 0.14,-0.1 0.2,-0.1 a0.1,0.1 0 0 1 0,0.07 a15.42,15.42 0 0 0 -0.28,1.62 a5.5,5.5 0 0 0 0,1.33 a4.21,4.21 0 0 1 0.4300000000000003,-0.25 a6.44,6.44 0 0 0 -0.12000000000000002,2.23 a4.41,4.41 0 0 1 0,0.7600000000000074 a1.79,1.79 0 0 0 0.6100000000000046,-0.2400000000000002 a3.8,3.8 0 0 1 -0.28,0.8400000000000006 a2.8200000000000003,2.8200000000000003 0 0 1 -1.61,0.7300000000000006 a9.53,9.53 0 0 0 -1.94,0.620000000000007 c-0.2,0.1 -0.4,0.3000000000000003 -0.3500000000000003,0.46 s0.28,0.2 0.3700000000000018,0.2 v0.1 c0.15000000000000024,0.22000000000000094 0.630000000000007,0.08000000000000022 0.750000000000007,0 a0.6000000000000006,0.6000000000000006 0 0 0 0.26,-0.19000000000000186 s-0.18000000000000024,0 -0.28,-0.06000000000000068 a0.09000000000000138,0.09000000000000138 0 0 1 -0.07,-0.08000000000000022 c0,-0.28 1.15,-0.32000000000000367 1.32,-0.3000000000000003 s0.25,0 0.32000000000000367,0.16000000000000192 s0.1,0.2400000000000002 -0.6000000000000006,1 m0.56,4.1 a10.35,10.35 0 0 1 -1.4100000000000001,2.8200000000000003 a8.81,8.81 0 0 1 -0.880000000000007,1 a2.2,2.2 0 0 0 -0.06000000000000068,0.2400000000000002 l-0.1,0.06000000000000068 l0.6000000000000006,-0.33000000000000396 l0.3000000000000003,-0.14 c0.3800000000000035,-0.2 0.8200000000000006,-0.4 1.24,-0.6000000000000006 l1.1,-1.9 a9.2,9.2 0 0 1 -0.6000000000000006,1.7000000000000002 l0.32000000000000367,-0.13 l1.53,-0.6000000000000006 a4,4 0 0 0 0.8600000000000046,-0.52 l0.2,-0.17 l-0.4700000000000003,-0.4800000000000003 l-0.17,0.13 a0.39000000000000395,0.39000000000000395 0 0 1 -0.54,0 c-0.2,-0.2 -1.2,-1.3 -1.3,-1.4 s-0.2,-0.3000000000000003 0,-0.6600000000000084 a1.15,1.15 0 0 1 -0.3500000000000003,-0.8500000000000006 a0.8400000000000006,0.8400000000000006 0 0 1 -0.16000000000000192,-0.670000000000009 a0.55,0.55 0 0 1 -0.3000000000000003,0.07 a0.5900000000000006,0.5900000000000006 0 0 1 -0.4100000000000003,0.19000000000000186 h0.010000000000000134 a0.7200000000000006,0.7200000000000006 0 0 1 -0.4400000000000035,-0.14 a0.6500000000000079,0.6500000000000079 0 0 1 -0.2400000000000002,-0.3100000000000035 a15.71,15.71 0 0 0 -1.86,2.62 a11.86,11.86 0 0 0 -1.37,2.63 c0.630000000000007,0 1,-0.13 1.78,-1 c0.3800000000000035,-0.4 1.37,-1.85 2,-2.63 a14.3,14.3 0 0 1 -1.57,2.91 a7.65,7.65 0 0 1 -1.11,1.22 s-0.2400000000000002,0.15000000000000024 -0.4,0.9 a4.48,4.48 0 0 0 2.54,-2 c0.32000000000000367,-0.4300000000000003 0.53,-0.78 1.34,-2 m6.75,4.87 a2.71,2.71 0 0 0 0.77,1.6500000000000008 a2.23,2.23 0 0 0 0.3500000000000003,-1 a5.82,5.82 0 0 1 -1.12,-0.620000000000007 m4.28,0.9 a16.63,16.63 0 0 0 5.43,-0.28 a22.16,22.16 0 0 0 -4.69,-2.46 a8.78,8.78 0 0 1 -1.6900000000000008,-0.81 a8.46,8.46 0 0 1 -0.78,-0.620000000000007 c-0.8500000000000006,-0.8 -3.1,-3.13 -3.5,-3.56 L213.16049337387085,60.158394865989685 a55.24,55.24 0 0 0 5,4.4 a29.78,29.78 0 0 0 4.91,1.52 a19.78,19.78 0 0 1 -4.91,-1.07 c-1.28,-0.52 -5.32,-4.5 -5.32,-4.5 l-1,0.9 a28.41,28.41 0 0 0 3.34,3.2 a8.93,8.93 0 0 0 4.73,1.9100000000000001 m2.75,-6.8 c0.630000000000007,0.78 1.6,2.24 2,2.63 c0.8,0.8500000000000006 1.15,1 1.78,1 a11.42,11.42 0 0 0 -1.37,-2.63 a25.26,25.26 0 0 0 -2.19,-3 a1.6700000000000008,1.6700000000000008 0 0 1 -0.06000000000000068,0.4400000000000035 v0.1 a0.750000000000007,0.750000000000007 0 0 1 -0.22000000000000094,0.25 a0.680000000000009,0.680000000000009 0 0 1 -0.4800000000000003,0.12000000000000002 a0.5900000000000006,0.5900000000000006 0 0 1 -0.4100000000000003,-0.19000000000000186 a0.55,0.55 0 0 1 -0.3000000000000003,-0.07 a0.8400000000000006,0.8400000000000006 0 0 1 -0.16000000000000192,0.670000000000009 a1.15,1.15 0 0 1 -0.32000000000000367,0.8200000000000006 a0.22000000000000094,0.22000000000000094 0 0 0 0,0.07 c0.2,0.3600000000000003 0.1,0.54 0,0.6600000000000084 s-1.07,1.2 -1.3,1.4 a0.4100000000000003,0.4100000000000003 0 0 1 -0.54,0 l-0.16000000000000192,-0.14 l-0.46,0.46 h0.06000000000000068 a3.89,3.89 0 0 0 1.1,0.680000000000009 c0.3600000000000003,0.15000000000000024 1.4,0.54 2.1,0.8200000000000006 l-0.5700000000000006,-1.7000000000000002 c0.18000000000000024,0.25 0.7000000000000006,1.1400000000000001 1.12,1.94 a19.79,19.79 0 0 1 1.8800000000000003,1 V64.72839486598969 a9.23,9.23 0 0 1 -0.870000000000007,-1 a10.35,10.35 0 0 1 -1.4100000000000001,-2.8200000000000003 c0.8,1.22 1,1.57 1.34,2 a4.61,4.61 0 0 0 2.54,2 c-0.15000000000000024,-0.7600000000000074 -0.4200000000000003,-0.93 -0.4200000000000003,-0.93 A7.43,7.43 0 0 1 224.26049337387084,62.728394865989685 c-0.2,-0.28 -0.13,-0.17 0,0 a14.2,14.2 0 0 1 -1.6,-3 m-1,-5.4 l0.6500000000000079,0.17 l0.3000000000000003,0.08000000000000022 a2.6,2.6 0 0 0 0.16000000000000192,-0.9500000000000006 c0,-0.3600000000000003 0.8,0.4 1.36,0.9500000000000006 c0.23,0.23 0.28,0.13 0.14,0 a7.7,7.7 0 0 0 -2,-1.6600000000000001 c-0.52,-0.33000000000000396 -0.8,-0.25 -0.6000000000000006,0 a1.6600000000000001,1.6600000000000001 0 0 1 -0.06000000000000068,1.42 m-1,-6.62 a0.11000000000000022,0.11000000000000022 0 0 1 0,-0.08000000000000022 a0.39000000000000395,0.39000000000000395 0 0 1 0.19000000000000186,0.09000000000000138 l0.2,0.12000000000000002 a3.51,3.51 0 0 1 -0.16000000000000192,-1 a5.88,5.88 0 0 0 -0.17,-1.31 a0.16000000000000192,0.16000000000000192 0 0 1 0,-0.06000000000000068 a2.73,2.73 0 0 1 -0.3800000000000035,0.620000000000007 a2.3,2.3 0 0 0 -0.52,1 v0.08000000000000022 l-0.06000000000000068,-0.06000000000000068 c0.12000000000000002,0.1 -0.32000000000000367,-0.4 -0.32000000000000367,-0.4 a9.66,9.66 0 0 1 -1.5,2.29 a4.79,4.79 0 0 0 -0.6100000000000046,2.19 a9.52,9.52 0 0 0 0,2.33 l0.3800000000000035,-0.4 a6.11,6.11 0 0 1 0,0.8600000000000046 a2.7800000000000002,2.7800000000000002 0 0 1 -0.15000000000000024,0.6400000000000079 a1.52,1.52 0 0 0 1.35,-0.5800000000000006 l0.1,0.28 c0.1,0.27 0.17,0.6000000000000006 -0.05000000000000059,0.77 c0,0 -0.4,0.3500000000000003 -0.3500000000000003,0.670000000000009 a0.46,0.46 0 0 0 0.21000000000000021,0.3000000000000003 a0.39000000000000395,0.39000000000000395 0 0 0 0.23,0.32000000000000367 a0.55,0.55 0 0 1 0,-0.3000000000000003 a0.3800000000000035,0.3800000000000035 0 0 1 0.33000000000000396,-0.27 a0.4800000000000003,0.4800000000000003 0 0 1 0.18000000000000024,0 s0.1,0.880000000000007 0.17,1.24 a11.46,11.46 0 0 1 0.2,1.18 v0.3000000000000003 c0,0.3000000000000003 0.2,0.32000000000000367 0.3600000000000003,0.3500000000000003 a2.29,2.29 0 0 0 0.3700000000000018,0 c-0.23,0.07 -0.2,0.16000000000000192 -0.2,0.2 a0.8900000000000079,0.8900000000000079 0 0 1 0,0.5800000000000006 a0.6900000000000094,0.6900000000000094 0 0 0 0.3000000000000003,-0.79 c0.26,-0.16000000000000192 0.2,-0.680000000000009 -0.18000000000000024,-1.48 c-0.17,-0.3700000000000018 -0.25,-1 -0.13,-1.06 c0.06000000000000068,0 0.13,0 0.3000000000000003,0.25 a10.35,10.35 0 0 0 0.4,0.53 a0.870000000000007,0.870000000000007 0 0 1 0.25,0.5 a0.22000000000000094,0.22000000000000094 0 0 1 0,0.13 a0.16000000000000192,0.16000000000000192 0 0 1 -0.11000000000000022,0 a1,1 0 0 1 -0.25,0 c0.1,0.1 0.4,0.45 0.5,0.3400000000000045 c0.2400000000000002,-0.27 0,0.17 0.4400000000000035,0.22000000000000094 s0.46,-0.17 0.4800000000000003,-0.5 a2.54,2.54 0 0 0 0,-0.2900000000000003 A1.62,1.62 0 0 0 222.16049337387085,56.728394865989685 l-0.1,-0.1 c-0.7000000000000006,-0.77 -0.6400000000000079,-0.9400000000000006 -0.6000000000000006,-1 a0.3600000000000003,0.3600000000000003 0 0 1 0.32000000000000367,-0.16000000000000192 a4.27,4.27 0 0 1 0.5800000000000006,0 c0.3000000000000003,0.06000000000000068 0.750000000000007,0.13 0.740000000000007,0.28 a0.13,0.13 0 0 1 -0.08000000000000022,0.08000000000000022 c-0.1,0.05000000000000059 -0.25,0.1 -0.28,0.06000000000000068 a0.740000000000007,0.740000000000007 0 0 0 0.27,0.19000000000000186 c0.1,0.05000000000000059 0.6000000000000006,0.2 0.740000000000007,0 l0.05000000000000059,-0.1 c0.1,0 0.32000000000000367,0 0.3700000000000018,-0.2 s-0.15000000000000024,-0.3600000000000003 -0.3500000000000003,-0.46 a8.2,8.2 0 0 0 -1,-0.39000000000000395 l-0.5,-0.13 l-0.8500000000000006,-0.22000000000000094 s-0.46,-0.15000000000000024 -0.620000000000007,-0.22000000000000094 l-0.18000000000000024,-0.1 a1,1 0 0 1 -0.3600000000000003,-0.3000000000000003 a3.8200000000000003,3.8200000000000003 0 0 1 -0.2900000000000003,-0.8500000000000006 a1.82,1.82 0 0 0 0.670000000000009,0.27 a3.64,3.64 0 0 1 0,-0.7600000000000074 c0.13,-1.4 0.16000000000000192,-2.2 0.16000000000000192,-2.2 l0.27,0.3000000000000003 a7.8900000000000015,7.8900000000000015 0 0 0 -0.08000000000000022,-1.4 a14.45,14.45 0 0 0 -0.28,-1.61 m3.4,-10.86 a4.34,4.34 0 0 0 0.05000000000000059,-1.61 a6.5600000000000005,6.5600000000000005 0 0 0 -0.4100000000000003,2.5300000000000002 a6.29,6.29 0 0 0 0.3600000000000003,-0.92 M222.86049337387084,39.728394865989685 a11.14,11.14 0 0 0 0.5900000000000006,-3.21 a6.18,6.18 0 0 0 -0.5900000000000006,3.21 m-1.23,-1.2 c0.4800000000000003,-1.45 0.07,-2.18 -0.2,-2.33 c0,0.6600000000000084 0.17,1 0.2,2.33 m-0.3000000000000003,6.27 a30.21,30.21 0 0 1 1.11,-6.1 c-1.52,1.6600000000000001 -1.3,5.5 -1.1,6.1 m6.82,-0.98 a5.14,5.14 0 0 0 0.09000000000000138,2 a4.61,4.61 0 0 0 0.8400000000000006,-1.6800000000000006 a4.69,4.69 0 0 0 0.33000000000000396,1.6400000000000001 a12.34,12.34 0 0 0 0.7300000000000006,-3.38 s0,0.06000000000000068 0.25,0.14 a11.23,11.23 0 0 0 -0.09000000000000138,-3.88 a12.94,12.94 0 0 0 -3,-6 c-1,-1.22 -1.9,-0.670000000000009 -2.7800000000000002,0.3000000000000003 c-1.4,1.53 -1.7000000000000002,2.2 -3.4,2.52 c-0.17,0 0,0.1 0.3000000000000003,0.1 c2,0 2.67,-1.3800000000000001 3.2800000000000002,-2.06 c0.4,-0.45 0.92,-0.8500000000000006 1.36,-0.6000000000000006 c0.16000000000000192,0.1 0.7200000000000006,0.740000000000007 0.14,2.33 a1.44,1.44 0 0 0 -0.21000000000000021,-0.7600000000000074 a9.74,9.74 0 0 1 -1,2.63 a3.71,3.71 0 0 1 -0.13,-0.5700000000000006 c-0.2,1.3 -1.35,2.63 -1.52,4.47 a1.27,1.27 0 0 1 -0.23,-0.81 c-0.870000000000007,1.6 -1.77,4.5 -1.2,5.93 a9.39,9.39 0 0 1 1.26,-4.23 c-0.6000000000000006,1.9 -1.3,4.22 -0.7000000000000006,5.63 a10.46,10.46 0 0 1 1.23,-4 c-0.8200000000000006,3.1 -1.1600000000000001,4.68 -0.25,5.87 a9.3,9.3 0 0 1 1,-4.36 c-0.4300000000000003,2.42 -1,4.53 0.1,5.6 a10.71,10.71 0 0 1 0.77,-4.43 c-0.3700000000000018,2.33 -0.7000000000000006,4.6 0.06000000000000068,5.7 a11.72,11.72 0 0 1 0.3100000000000035,-2.43 c0.2,-1 0.5,-2 0.5,-2 s-0.2400000000000002,1.6300000000000003 -0.3700000000000018,3.62 v1 a7.1,7.1 0 0 0 0.12000000000000002,1.22 a3.31,3.31 0 0 0 0.3500000000000003,1 a31,31 0 0 1 0.870000000000007,-6 s-0.3000000000000003,2.47 -0.5,6.24 v0.4 c-0.25,5.43 0.4800000000000003,7.17 0.7000000000000006,7.7 a3.15,3.15 0 0 1 -0.07,-0.8 a5.74,5.74 0 0 1 0.05000000000000059,-1.22 a8.28,8.28 0 0 1 -0.4200000000000003,-2.5300000000000002 l0.17,-2.4 l0.2,-2.08 a39.98,39.98 0 0 1 0.23,-1.8 c0.12000000000000002,-0.880000000000007 0.3000000000000003,-1.75 0.45,-2.62 c0.12000000000000002,-0.7000000000000006 0.05000000000000059,-0.1 0,0.08000000000000022 l-0.3400000000000045,4.25 c-0.1,1.3 -0.4,3.9 -0.33000000000000396,5.17 a6.91,6.91 0 0 0 0.3600000000000003,1.73 a7.63,7.63 0 0 0 0.52,3.77 s0.22000000000000094,-0.7600000000000074 0.4,-1.7000000000000002 a0.4200000000000003,0.4200000000000003 0 0 1 -0.22000000000000094,0.19000000000000186 a6.86,6.86 0 0 1 -0.19000000000000186,-3.08 a4.84,4.84 0 0 1 -0.27,-1.5 a45.59,45.59 0 0 1 0.4300000000000003,-4.66 l0.22000000000000094,-1.5 c0,-0.3000000000000003 0.1,-0.6000000000000006 0.14,-0.92 a21.07,21.07 0 0 1 0.26,-1.46 c0,-0.1 0,-0.16000000000000192 0.05000000000000059,-0.23 s0,0.3600000000000003 -0.05000000000000059,0.8300000000000006 l-0.6500000000000079,7.85 a5.32,5.32 0 0 0 0.2400000000000002,1.55 a11.29,11.29 0 0 0 0.07,2.49 a5.77,5.77 0 0 0 0.16000000000000192,-0.880000000000007 s0.3000000000000003,-2.16 0.6400000000000079,-5.24 l0.15000000000000024,-1.4300000000000002 c0,-0.4400000000000035 0.1,-0.9 0.15000000000000024,-1.37 l0.15000000000000024,-1.6500000000000008 l0.06000000000000068,-0.7000000000000006 l0.4,-4.53 l0.2400000000000002,-3 l-0.12000000000000002,-0.1 s-0.26,2.9 -1,3.92 a3.62,3.62 0 0 1 -0.4400000000000035,-1.6400000000000001 a4.6400000000000015,4.6400000000000015 0 0 1 -0.880000000000007,1.35 a3.93,3.93 0 0 1 -0.21000000000000021,-1.52 a2.16,2.16 0 0 1 -0.8,0.79 a3.31,3.31 0 0 1 -0.3000000000000003,-1.6 a2.24,2.24 0 0 1 -0.6500000000000079,0.5700000000000006 c-0.1,-0.22000000000000094 -0.6000000000000006,-1 0.32000000000000367,-4.07 c-0.3700000000000018,2.8 -0.15000000000000024,3.12 -0.07,3.35 a2.19,2.19 0 0 0 0.4200000000000003,-0.28 a18.77,18.77 0 0 1 0.2900000000000003,-2 a7.66,7.66 0 0 0 0.21000000000000021,3.36 a3.79,3.79 0 0 0 0.8400000000000006,-1.59 m6.15,-19.3 a11.57,11.57 0 0 1 -3,0.28 a5.8100000000000005,5.8100000000000005 0 0 0 -0.6600000000000084,2.92 a2.51,2.51 0 0 1 -1.23,-0.6900000000000094 l-1.1,1.46 a31.78,31.78 0 0 1 3.95,15.11 a35.66,35.66 0 0 0 5.3,-3.66 c-0.3600000000000003,-6.4 -1.35,-11.23 -3.3,-15.42 m1.1,38.8 a15.2,15.2 0 0 1 -5.82,6.3 c-3.67,2.33 -7.5,1.77 -8.73,1 l0.13,0.33000000000000396 l0.12000000000000002,0.3000000000000003 c0.5,1.32 0.16000000000000192,2.7 -1.6400000000000001,2.9 a4.55,4.55 0 0 0 -1.62,0.3600000000000003 a5.15,5.15 0 0 0 -1.45,1.09 a6.6400000000000015,6.6400000000000015 0 0 0 -0.92,1.29 a6.24,6.24 0 0 0 -0.92,-1.29 a5,5 0 0 0 -1.36,-1.05 a4.55,4.55 0 0 0 -1.62,-0.3600000000000003 c-1.8,-0.2 -2.12,-1.58 -1.6300000000000003,-2.9 c0,-0.07 0.08000000000000022,-0.2 0.12000000000000002,-0.3000000000000003 l0.13,-0.33000000000000396 a8.44,8.44 0 0 1 -5.79,0.23 l-0.25,-0.07 a12.66,12.66 0 0 1 -5.5600000000000005,-3.1 a17,17 0 0 1 -3.4,-4.46 c-3.5,-7.2 -3,-17.9 -3,-19 c-0.12000000000000002,-12.35 2.62,-19.28 5,-22.63 l-1.2,-1.58 a2.34,2.34 0 0 0 -1.48,-0.7200000000000006 a26.83,26.83 0 0 0 -0.8300000000000006,-3.54 a20.56,20.56 0 0 0 3.13,1.82 a2.1,2.1 0 0 0 0.3000000000000003,1.6 l0.93,1.24 a12.71,12.71 0 0 1 3.89,-3.24 c0.4,-0.2400000000000002 0.8600000000000046,-0.4700000000000003 1.34,-0.7000000000000006 a2.27,2.27 0 0 1 0.6400000000000079,-1.7200000000000002 a1.21,1.21 0 0 1 0.7200000000000006,-1 a1.58,1.58 0 0 1 1.3,0.3600000000000003 a2.88,2.88 0 0 1 1.7400000000000002,1 a33.44,33.44 0 0 1 4.93,-0.6500000000000079 A2.85,2.85 0 0 1 214.12049337387086,12.528394865989686 a1.61,1.61 0 0 1 1.2,-0.8200000000000006 a1.61,1.61 0 0 1 1.2,0.8200000000000006 a2.8200000000000003,2.8200000000000003 0 0 1 1.53,1.92 a33.44,33.44 0 0 1 4.93,0.6500000000000079 a2.88,2.88 0 0 1 1.7400000000000002,-1 a1.58,1.58 0 0 1 1.3,-0.3600000000000003 a1.24,1.24 0 0 1 0.7300000000000006,1 a2.3,2.3 0 0 1 0.630000000000007,1.7200000000000002 c0.4800000000000003,0.22000000000000094 0.93,0.45 1.34,0.7000000000000006 a14.38,14.38 0 0 1 4,3.29 l1,-1.37 a2.22,2.22 0 0 0 0.3000000000000003,-1.61 A19.35,19.35 0 0 0 237.16049337387085,15.728394865989685 a26.72,26.72 0 0 0 -0.8300000000000006,3.55 a2.31,2.31 0 0 0 -1.47,0.7200000000000006 L233.53049337387085,21.728394865989685 c2.34,3.37 5,10.24 4.92,22.52 c0,1 0.4800000000000003,11.9 -3,19.1 m-27.6,-42.1 l0.630000000000007,0.28 l0.4400000000000035,-0.52 l-0.6500000000000079,-0.3000000000000003 c-0.15000000000000024,0.16000000000000192 -0.3000000000000003,0.3800000000000035 -0.4200000000000003,0.52 m12,-2.2800000000000002 a0.6400000000000079,0.6400000000000079 0 0 0 -0.2900000000000003,0.3000000000000003 a0.7300000000000006,0.7300000000000006 0 0 0 0.52,0.23 h0.14 c0.12000000000000002,-0.28 -0.14,-0.630000000000007 -0.3700000000000018,-0.54 m5.32,1.4300000000000002 a2.3,2.3 0 0 1 -0.54,0.8 a20.59,20.59 0 0 0 -4,-1 a2.77,2.77 0 0 1 -1.22,0.880000000000007 a5.39,5.39 0 0 1 -1.61,-0.4700000000000003 h0.54 a3.64,3.64 0 0 0 1.7200000000000002,-0.51 c-1,-0.15000000000000024 -1.2,-0.4 -0.7200000000000006,-1 c0.2,-0.27 0.56,-0.78 1.07,-0.6500000000000079 s0.5,0.680000000000009 0.46,1.1 a19,19 0 0 1 3.66,0.9 c0.07,-0.32000000000000367 -0.13,-0.4700000000000003 -0.26,-0.7000000000000006 a3.67,3.67 0 0 1 0.6100000000000046,-0.51 a1.1600000000000001,1.1600000000000001 0 0 1 0.33000000000000396,1.13 m-4.42,0.52 l0.46,0.46 l0.630000000000007,-0.3400000000000045 c-0.18000000000000024,-0.17 -0.3000000000000003,-0.3000000000000003 -0.5,-0.4700000000000003 c-0.2,0.1 -0.4400000000000035,0.25 -0.6000000000000006,0.3500000000000003 m5,-0.2400000000000002 a14.79,14.79 0 0 1 -0.6500000000000079,1.45 c0.15000000000000024,0.06000000000000068 0.3500000000000003,-0.06000000000000068 0.5,-0.15000000000000024 a4.76,4.76 0 0 0 1.3800000000000001,-2.16 a2.5700000000000003,2.5700000000000003 0 0 0 -0.5900000000000006,0.17 c-0.3800000000000035,0.17 -0.45,0.27 -0.630000000000007,0.7000000000000006 m0.3000000000000003,-1 c0.53,-0.05000000000000059 1,0.08000000000000022 1.25,-0.16000000000000192 c-0.33000000000000396,-0.1 -0.670000000000009,-0.2 -0.78,-0.3500000000000003 c0.14,-0.1 0.3400000000000045,0 0.45,0.13 l0.2,-0.18000000000000024 a0.680000000000009,0.680000000000009 0 0 0 -1,0.17 a1.7000000000000002,1.7000000000000002 0 0 1 0.3000000000000003,0.18000000000000024 a1.5,1.5 0 0 0 -0.4200000000000003,0.21000000000000021 m-19.72,2 l-0.4800000000000003,-0.15000000000000024 c-0.12000000000000002,0.18000000000000024 -0.25,0.4 -0.33000000000000396,0.56 l0.6600000000000084,0.2 l0.2400000000000002,-0.3800000000000035 l0.4700000000000003,0.15000000000000024 c0.14,-0.22000000000000094 0.2,-0.33000000000000396 0.3600000000000003,-0.56 c-0.25,-0.08000000000000022 -0.4200000000000003,-0.14 -0.680000000000009,-0.2 a2.45,2.45 0 0 0 -0.2400000000000002,0.3800000000000035 m11.08,-2.84 c-0.33000000000000396,-0.55 -1.57,0 -2.35,0.27 h2.38 a0.2900000000000003,0.2900000000000003 0 0 0 0,-0.28 m0.55,1 a43,43 0 0 0 -10.45,0.8300000000000006 a4,4 0 0 0 -0.5,-0.9 c-0.680000000000009,-0.740000000000007 -1,0.06000000000000068 -1,0.15000000000000024 c0.8600000000000046,0.05000000000000059 1,0.5 1,0.5 a2,2 0 0 1 -0.8300000000000006,0.8300000000000006 a3.26,3.26 0 0 1 -1.46,0.51 c-1.62,0.07 -1.18,-1.6 -0.2,-2.3 c-0.12000000000000002,0.15000000000000024 -0.7000000000000006,1 -0.3400000000000045,1.48 s1.9,0.1 2.25,-0.3600000000000003 a1.4,1.4 0 0 0 -1.09,-0.19000000000000186 a2.35,2.35 0 0 1 0.93,-1.62 a2.27,2.27 0 0 1 1.34,1.1600000000000001 a41.93,41.93 0 0 1 6.8900000000000015,-0.8200000000000006 c0,-0.4 -0.2,-1.9500000000000002 -0.2,-2 c0,-0.25 0.15000000000000024,-0.3700000000000018 0.3000000000000003,-0.4700000000000003 a1.21,1.21 0 0 0 0.740000000000007,0.6100000000000046 a2.93,2.93 0 0 1 -0.4700000000000003,0.4 c0,0.3000000000000003 0,0.880000000000007 0.06000000000000068,1.1 a9.34,9.34 0 0 1 1.57,-0.54 a2.2800000000000002,2.2800000000000002 0 0 1 0.7100000000000006,-0.07 a1.4,1.4 0 0 1 0.630000000000007,0.26 a0.78,0.78 0 0 1 0.26,0.5 a2.81,2.81 0 0 1 -0.18000000000000024,1 m-4.5,8 h-0.3800000000000035 c-0.03000000000000037,0 0.18000000000000024,0.16000000000000192 0.25,0.18000000000000024 a0.12000000000000002,0.12000000000000002 0 0 0 0.14,-0.07 v-0.15000000000000024 m0.17,0 a0.56,0.56 0 0 1 0.05000000000000059,0.3500000000000003 a0.6000000000000006,0.6000000000000006 0 0 1 -1.2,0 a0.5700000000000006,0.5700000000000006 0 0 1 0.07,-0.3100000000000035 c-0.12000000000000002,0 -0.13,0.1 -0.2400000000000002,0.25 s-0.18000000000000024,0.07 -0.3500000000000003,0.18000000000000024 a0.92,0.92 0 0 1 0.51,-0.670000000000009 a4,4 0 0 1 2.72,0.26 a6.3100000000000005,6.3100000000000005 0 0 0 -1,-0.05000000000000059 h-0.6000000000000006 M217.16049337387085,17.128394865989684 l-0.5700000000000006,-0.4 c-0.2,0.13 -0.4,0.3000000000000003 -0.55,0.4200000000000003 l0.54,0.4 l0.56,-0.4 m-5.66,11.1 c-0.06000000000000068,0 -0.12000000000000002,0.22000000000000094 0.1,0.23 s0.2,-0.2 0.2,-0.2 s-0.23,-0.1 -0.3000000000000003,0 m5.85,1.62 a1.31,1.31 0 0 0 -1,-0.6900000000000094 a2,2 0 0 1 0.3500000000000003,0.5700000000000006 a2.5,2.5 0 0 1 -0.5800000000000006,0.12000000000000002 a1.33,1.33 0 0 0 1.22,0 M215.99049337387086,28.728394865989685 a2,2 0 0 0 -1.15,-0.6500000000000079 a1.34,1.34 0 0 0 1.15,0.6500000000000079 m-0.3400000000000045,-0.6400000000000079 c0.2,0.2 0.8500000000000006,0.4700000000000003 1.2,0.8 c0,-0.55 -0.53,-0.8500000000000006 -1.2,-0.8 m-0.25,7.94 a2.2,2.2 0 0 0 0,2.26 s0.52,-1.54 0,-2.26 m1.23,4.42 a3.6100000000000003,3.6100000000000003 0 0 0 0.92,-2.39 a5.48,5.48 0 0 1 -1,1.24 a4.53,4.53 0 0 1 -0.8200000000000006,-0.7600000000000074 a3.35,3.35 0 0 0 0.8900000000000079,1.9100000000000001 m-1,-6.88 a1.07,1.07 0 0 0 -0.26,1.32 s0.8,-0.880000000000007 0.26,-1.32 m1,-2.7 c0.2,0.22000000000000094 0.9,0.3800000000000035 1.3,0.740000000000007 a0.93,0.93 0 0 0 -1.29,-0.740000000000007 m1,1.77 a1.19,1.19 0 0 0 -1.07,-1.28 c-0.06000000000000068,0.5 0.7600000000000074,0.8 1.07,1.28 m-0.3800000000000035,1.33 c-0.4300000000000003,0.4700000000000003 0,1.4 0.22000000000000094,2.25 c0.2400000000000002,-0.4 0.5,-1.8 -0.22000000000000094,-2.25 m2.3200000000000003,2.15 a3,3 0 0 1 -0.750000000000007,1.59 a4.84,4.84 0 0 1 -0.740000000000007,-0.77 a3.23,3.23 0 0 0 0.77,1.83 a2.9,2.9 0 0 0 0.7200000000000006,-2.6500000000000004 m-1.23,-4 c-0.1,0.53 0.750000000000007,1.32 0.740000000000007,1.32 a1.27,1.27 0 0 0 -0.740000000000007,-1.32 m1.47,2.44 a6.3100000000000005,6.3100000000000005 0 0 0 0.6600000000000084,2.11 a1.94,1.94 0 0 0 -0.6600000000000084,-2.11 M214.26049337387084,41.728394865989685 a3.34,3.34 0 0 0 0.4400000000000035,-2.47 a2,2 0 0 1 -0.7100000000000006,1.4 a1.7400000000000002,1.7400000000000002 0 0 1 -0.630000000000007,-0.78 a2.2800000000000002,2.2800000000000002 0 0 0 0.9,1.85 m-0.630000000000007,-7.33 a1.35,1.35 0 0 0 -0.3800000000000035,2 a7.49,7.49 0 0 0 0.3800000000000035,-2 m-0.54,2.5 c-0.740000000000007,0.92 0.4,2.06 0.4,2.07 s0.1,-1.73 -0.4,-2.07 m-2.72,3.6 a6.27,6.27 0 0 0 -0.54,-2.36 a4.49,4.49 0 0 0 0.54,2.36 m0.93,-4.77 a20.13,20.13 0 0 1 1.13,-2.34 a2.34,2.34 0 0 0 -1.13,2.35 m0.4800000000000003,2.8 a6.82,6.82 0 0 1 -0.12000000000000002,1.3900000000000001 a1.6900000000000008,1.6900000000000008 0 0 1 -0.670000000000009,-0.4800000000000003 a5.55,5.55 0 0 0 1.06,1.5 a3.67,3.67 0 0 0 -0.27,-2.41 m-0.77,2 a2.7,2.7 0 0 0 0.8400000000000006,2.14 a3.41,3.41 0 0 0 -0.8400000000000006,-2.14 m0.33000000000000396,2.9 a5.61,5.61 0 0 0 0.9500000000000006,1.22 c-0.46,-0.7000000000000006 -0.8300000000000006,-2 -1.3,-2.36 a2.31,2.31 0 0 0 0.3400000000000045,1.1400000000000001 m-1.34,-6.34 c-0.08000000000000022,-0.53 0.5800000000000006,-1 0.3500000000000003,-1.8800000000000003 a1.6900000000000008,1.6900000000000008 0 0 0 -0.3500000000000003,1.8800000000000003 m3.9,7.36 a3.49,3.49 0 0 1 -1,-1 a4.57,4.57 0 0 0 1.34,2.06 a3.52,3.52 0 0 0 0.19000000000000186,-2.73 a5.51,5.51 0 0 1 -0.54,1.7000000000000002 m2.9,-2.7600000000000002 a3.29,3.29 0 0 1 -1,1.56 a2.91,2.91 0 0 1 -0.680000000000009,-1 a2,2 0 0 0 0.8600000000000046,1.9500000000000002 a3.27,3.27 0 0 0 0.77,-2.54 m1.44,2.85 a2.94,2.94 0 0 0 0.7200000000000006,-2.71 a5.91,5.91 0 0 0 -0.7200000000000006,2.71 m-1.6,1.4300000000000002 a4.28,4.28 0 0 0 0.5800000000000006,-2.25 a3.72,3.72 0 0 0 -0.5800000000000006,2.25 m3.47,-5.25 c0.3000000000000003,-0.4700000000000003 0.7000000000000006,-1.15 0.3700000000000018,-1.6 a13.61,13.61 0 0 0 -0.3700000000000018,1.59 m-2.2,1.53 a3.73,3.73 0 0 0 1.08,-2.41 a2.42,2.42 0 0 1 -1.08,1.28 a1.6300000000000003,1.6300000000000003 0 0 1 -0.6100000000000046,-0.8500000000000006 a2.25,2.25 0 0 0 0.6100000000000046,2 m2.06,-3 s0.7000000000000006,-1.26 0.3000000000000003,-1.94 c-0.4700000000000003,0.1 -0.3000000000000003,1.9500000000000002 -0.3000000000000003,1.94 m0,2.1 a7.91,7.91 0 0 0 -0.680000000000009,2.33 c0.15000000000000024,-0.14 0.93,-2 0.680000000000009,-2.33 m-5,6.34 a2.34,2.34 0 0 0 -0.12000000000000002,-2 a2.5,2.5 0 0 0 0.12000000000000002,2 m0.7000000000000006,1.85 a2.08,2.08 0 0 0 0,-1.73 a2.18,2.18 0 0 0 0,1.73 m0.9,-0.6000000000000006 a4.58,4.58 0 0 0 0.6100000000000046,-2.5 a4.22,4.22 0 0 0 -0.6100000000000046,2.5 m-2.85,-1.15 a5.92,5.92 0 0 0 -0.750000000000007,-2 a2.39,2.39 0 0 0 0.750000000000007,2 m5.58,1 a1,1 0 0 0 -0.12000000000000002,-0.4700000000000003 a5.51,5.51 0 0 0 -0.53,2.36 c0.26,-0.93 1,-1.12 1.1600000000000001,-2 a1,1 0 0 0 0.45,0.16000000000000192 a6.5,6.5 0 0 1 -0.4200000000000003,-1.4 a3.22,3.22 0 0 1 -0.54,1.33 m-7.5,1.92 a5.62,5.62 0 0 0 -0.53,-2.36 a1,1 0 0 0 -0.12000000000000002,0.4700000000000003 a3.31,3.31 0 0 1 -0.54,-1.34 a7.06,7.06 0 0 1 -0.4200000000000003,1.4100000000000001 a1.07,1.07 0 0 0 0.45,-0.16000000000000192 c0.2,0.8600000000000046 0.9,1.05 1.1600000000000001,2 m-5.66,-9.7 a1.1400000000000001,1.1400000000000001 0 0 1 -0.54,-0.33000000000000396 a1.7200000000000002,1.7200000000000002 0 0 0 0.8300000000000006,1 a3.62,3.62 0 0 0 -0.7100000000000006,-3.22 c0.7000000000000006,2 0.4200000000000003,2.5 0.4200000000000003,2.5 m-0.750000000000007,2 a1.27,1.27 0 0 1 -0.4900000000000003,-0.39000000000000395 a1.55,1.55 0 0 0 0.78,1.1 c0.25,-0.8 0.4,-1.4300000000000002 -0.7200000000000006,-3.77 c0.77,2.3 0.4300000000000003,3.06 0.4300000000000003,3.06 m-4.6,-1.12 a4.13,4.13 0 0 1 -0.39000000000000395,-1.84 a3.29,3.29 0 0 0 0.26,2.2800000000000002 a0.8500000000000006,0.8500000000000006 0 0 0 0.3600000000000003,-0.6600000000000084 c0,0.1 -0.23,0.22000000000000094 -0.23,0.22000000000000094 m0.7000000000000006,-0.680000000000009 a5.19,5.19 0 0 1 -0.4700000000000003,-2 a3.66,3.66 0 0 0 0.4,2.56 a0.9400000000000006,0.9400000000000006 0 0 0 0.3800000000000035,-0.7600000000000074 c0,0.1 -0.3000000000000003,0.2400000000000002 -0.3000000000000003,0.2400000000000002 m3.05,-4.05 a5.55,5.55 0 0 1 -1.31,-2.71 a5.42,5.42 0 0 0 1.42,3.5 a3,3 0 0 0 -0.07,-2.4 a6.24,6.24 0 0 1 -0.07,1.58 m-0.8,1.3 a6.57,6.57 0 0 1 -1.11,-3 a5.77,5.77 0 0 0 1.18,3.77 a2.1,2.1 0 0 0 0.1,-2 a3.27,3.27 0 0 1 -0.17,1.22 m-0.7600000000000074,1 c-0.25,-0.3800000000000035 -0.6000000000000006,-0.9 -0.93,-3.15 a5.57,5.57 0 0 0 1,3.84 a1.7000000000000002,1.7000000000000002 0 0 0 0.32000000000000367,-1.3800000000000001 a2,2 0 0 1 -0.3500000000000003,0.6900000000000094 m-0.740000000000007,1 c-0.22000000000000094,-0.3500000000000003 -0.3800000000000035,-0.7600000000000074 -0.6000000000000006,-2.7800000000000002 a5.2,5.2 0 0 0 0.5800000000000006,3.47 a1.46,1.46 0 0 0 0.33000000000000396,-1.22 a1.47,1.47 0 0 1 -0.32000000000000367,0.53 m27.48,1.2 a0.8300000000000006,0.8300000000000006 0 0 0 0.3500000000000003,0.6600000000000084 a3.22,3.22 0 0 0 0.27,-2.27 a4.13,4.13 0 0 1 -0.39000000000000395,1.84 s-0.2,-0.13 -0.23,-0.23 m-0.77,-0.7000000000000006 a0.9400000000000006,0.9400000000000006 0 0 0 0.3800000000000035,0.7600000000000074 a3.67,3.67 0 0 0 0.4,-2.5700000000000003 a5.11,5.11 0 0 1 -0.4700000000000003,2 s-0.27,-0.12000000000000002 -0.3000000000000003,-0.23 m-2.74,-3.8 a6.24,6.24 0 0 1 -0.07,-1.58 a3,3 0 0 0 -0.07,2.4 a5.45,5.45 0 0 0 1.42,-3.51 a5.61,5.61 0 0 1 -1.28,2.6900000000000004 m0.8,1.28 a3.27,3.27 0 0 1 -0.17,-1.22 a2.12,2.12 0 0 0 0.1,2 a5.88,5.88 0 0 0 1.18,-3.7800000000000002 a6.46,6.46 0 0 1 -1.11,3 m1.7000000000000002,-2.18 c-0.32000000000000367,2.25 -0.680000000000009,2.77 -0.93,3.15 a1.9100000000000001,1.9100000000000001 0 0 1 -0.3500000000000003,-0.6900000000000094 a1.6900000000000008,1.6900000000000008 0 0 0 0.32000000000000367,1.3800000000000001 a5.57,5.57 0 0 0 1,-3.84 m0.4,1.35 c-0.2,2 -0.3700000000000018,2.43 -0.6000000000000006,2.7800000000000002 a1.57,1.57 0 0 1 -0.32000000000000367,-0.54 a1.45,1.45 0 0 0 0.33000000000000396,1.22 a5.16,5.16 0 0 0 0.5800000000000006,-3.46 m-4.5,3.4 s-0.27,-0.52 0.4200000000000003,-2.52 a3.64,3.64 0 0 0 -0.7100000000000006,3.23 a1.7200000000000002,1.7200000000000002 0 0 0 0.8300000000000006,-1.05 a1.11,1.11 0 0 1 -0.54,0.3400000000000045 m1.23,1.6 a1.49,1.49 0 0 1 -0.77,1.1 c-0.25,-0.8 -0.4,-1.4300000000000002 0.7200000000000006,-3.77 c-0.77,2.3 -0.4300000000000003,3.06 -0.4300000000000003,3.06 a1.27,1.27 0 0 0 0.4800000000000003,-0.39000000000000395 M28.33049337387085,50.328394865989694 h1.1 c1.62,0 2.22,-0.6000000000000006 2.22,-2.74 V45.728394865989685 c0,-1.85 -0.5800000000000006,-2.5300000000000002 -1.8,-2.5300000000000002 H28.33049337387085 zM27.16049337387085,42.198394865989684 h2.8 a2.44,2.44 0 0 1 2.46,1.4 a9.35,9.35 0 0 1 0.4100000000000003,2.89 a7.6,7.6 0 0 1 -0.56,3.68 c-0.5,0.8 -1.42,1.18 -3,1.18 H27.16049337387085 z" id="svg_5" fill="#ffffff" fill-opacity="1"/><path class="D" d="M34.88049337387085,51.348394865989675 v-9.15 h4.7 v1.02 H36.04049337387085 v2.94 h3.3 v1 h-3.3 v3.17 h3.63 v1 H34.86049337387085 zm7.65,-5.04 h1.28 A1.46,1.46 0 0 0 45.430493373870846,44.728394865989685 A1.34,1.34 0 0 0 44.16049337387085,43.21839486598968 h-1.6300000000000003 zm-1.17,5 v-9.1 h2.72 a2.2800000000000002,2.2800000000000002 0 0 1 2.54,2.6100000000000003 a2.37,2.37 0 0 1 -2.56,2.51 h-1.53 v4 zm9.04,-8.03 l-1.44,4.88 h2.93 zm-0.7000000000000006,-1.08 H51.16049337387085 l3,9.15 h-1.3 l-0.7000000000000006,-2.18 h-3.5 l-0.680000000000009,2.18 h-1.18 zm6.8,3.93 h1.75 c0.8300000000000006,0 1.24,-0.7200000000000006 1.24,-1.52 a1.24,1.24 0 0 0 -1.23,-1.3900000000000001 h-1.7600000000000002 zm0,1 v4.2 h-1.17 v-9.14 h3.16 a2.06,2.06 0 0 1 2.19,2.2800000000000002 a2,2 0 0 1 -1.6700000000000008,2.09 c1,0.16000000000000192 1.4300000000000002,0.52 1.5,2.36 a14.36,14.36 0 0 0 0.32000000000000367,2.39 h-1.22 a10.41,10.41 0 0 1 -0.3500000000000003,-3 a1.21,1.21 0 0 0 -1.3800000000000001,-1.17 zm11.04,-4.93 v1.02 h-2.4 v8.13 H63.96049337387085 V43.228394865989685 h-2.4 v-1.02 h5.98 zm2.3200000000000003,9.15 h-1.1 v-9.15 h1.9 l2.3,7.68 h0.02000000000000026 l2.33,-7.68 h1.9300000000000002 v9.15 H76.06049337387086 V43.228394865989685 h-0.02000000000000026 l-2.56,8.13 h-1.1 l-2.5,-8.13 h-0.03000000000000037 v8.13 zm9.44,0 v-9.15 h4.72 v1.02 H80.46049337387085 v2.94 h3.3 v1 h-3.3 v3.17 h3.62 v1 h-4.8 zm12.68,-9.15 v9.15 h-1.6 l-3.6,-7.93 h-0.03000000000000037 v7.93 h-1.04 v-9.15 h1.6500000000000008 l3.56,7.83 h0.03000000000000037 v-7.83 h1.04 zm7.24,0 v1.02 h-2.4 v8.13 H95.66049337387085 V43.228394865989685 h-2.4 v-1.02 h5.98 zm6.77,5.78 v-3 c0,-1.9 -1.3,-1.9500000000000002 -1.6600000000000001,-1.9500000000000002 s-1.6600000000000001,0.06000000000000068 -1.6600000000000001,1.9500000000000002 v3 c0,2 0.5800000000000006,2.47 1.6600000000000001,2.47 s1.6600000000000001,-0.5 1.6600000000000001,-2.47 m-4.5,0 v-3 a2.84,2.84 0 1 1 5.67,0 v3 c0,2.5 -0.93,3.48 -2.84,3.48 s-2.83,-1 -2.83,-3.48 m7.57,3.25 v-9 h4.47 v1 h-3.3200000000000003 v2.9 h3.15 v1 h-3.15 v4.12 H109.06049337387086 zm13.48,13.68 l1.18,-4.35 l0.6400000000000079,-2.44 c0.2,-0.8 0.26,-1 1.42,-0.77 l-1.1,3.72 l-1.36,4.7 a0.6100000000000046,0.6100000000000046 0 0 1 -0.77,0.53 c-0.3500000000000003,0 -0.78,0.16000000000000192 -0.9400000000000006,-0.4 L119.16049337387085,57.378394865989684 c1.15,-0.3000000000000003 1.23,-0.25 1.5,0.8200000000000006 l1.73,6.68 h0.14 m-15.1,0.45 h1.08 c1.6,0 2.2,-0.6000000000000006 2.2,-2.7 v-1.82 c0,-1.82 -0.56,-2.5 -1.7600000000000002,-2.5 h-1.5 zm-1.15,-8 h2.77 A2.4,2.4 0 0 1 111.46049337387085,58.728394865989685 a9.37,9.37 0 0 1 0.4,2.85 a7.45,7.45 0 0 1 -0.55,3.63 c-0.5,0.77 -1.4,1.1600000000000001 -3,1.1600000000000001 H106.26049337387084 zm36.76,5.66 v-3 c0,-1.9 -1.3,-1.9500000000000002 -1.6600000000000001,-1.9500000000000002 s-1.6600000000000001,0.06000000000000068 -1.6600000000000001,1.9500000000000002 v3 c0,2 0.5800000000000006,2.47 1.6600000000000001,2.47 s1.6600000000000001,-0.5 1.6600000000000001,-2.47 m-4.5,0 v-3 a2.83,2.83 0 1 1 5.66,0 v3 c0,2.5 -0.92,3.48 -2.83,3.48 s-2.83,-1 -2.83,-3.48 m-5.4,3.3 v-9 h1.15 v8 h3.3 v1 h-4.46 zm-6.22,0.02000000000000026 v-9 h4.6400000000000015 v1 h-3.5 v2.9 h3.25 v1 h-3.25 v3.12 h3.5700000000000003 v1 h-4.7 z" id="svg_6" fill="#ffffff" fill-opacity="1"/><path class="D" d="M147.50049337387085,61.408394865989685 h1.28 a1.45,1.45 0 0 0 1.62,-1.55 c0,-1.4 -1,-1.54 -1.3,-1.54 h-1.6 zm-1.1600000000000001,5 v-9.1 h2.7 c1.23,0 2.54,0.46 2.54,2.6 a2.37,2.37 0 0 1 -2.56,2.51 h-1.53 v4 zm7.85,-0.04000000000000011 h-1.1 V57.228394865989685 h1.9 l2.3,7.68 h0.03000000000000037 l2.33,-7.68 h1.92 v9.15 h-1.1600000000000001 V58.228394865989685 h-0.03000000000000037 l-2.56,8.13 h-1.1 l-2.5,-8.13 h-0.02000000000000026 v8.13 zm9.27,0.06000000000000068 v-9.15 h4.7 v1.02 h-3.55 v2.94 h3.3 v1 h-3.3 v3.17 h3.63 v1 h-4.8 zm12.54,-9.24 v9.15 h-1.6 l-3.6,-7.93 h-0.03000000000000037 v7.93 h-1.04 v-9.15 h1.6500000000000008 l3.56,7.84 h0.03000000000000037 v-7.84 h1.04 zm7.06,0.1 v1 h-2.4 v8.14 h-1.17 v-8.14 h-2.4 v-1 h5.98 zM113.84049337387086,66.32839486598968 v-9 h4.65 v1 h-3.5 v2.9 h3.25 v1 h-3.25 v3.12 h3.5700000000000003 v1 h-4.72 zm38.65,-24.06 h1.15 v5.77 c0,2 0.6000000000000006,2.47 1.6800000000000006,2.47 s1.7000000000000002,-0.5 1.7000000000000002,-2.47 v-5.77 H158.16049337387085 v5.72 c0,2.5 -0.93,3.48 -2.84,3.48 s-2.83,-1 -2.83,-3.48 zM121.32049337387085,44.628394865989684 a2.17,2.17 0 0 0 -0.26,-1.31 a1.51,1.51 0 0 0 -1,-0.39000000000000395 a1.4300000000000002,1.4300000000000002 0 0 0 -1.36,0.7000000000000006 c0,0.1 -0.26,0.32000000000000367 -0.26,1.87 v2.4 c0,2.2 0.7200000000000006,2.47 1.6,2.47 c0.3500000000000003,0 1.4,-0.12000000000000002 1.42,-1.8800000000000003 h1.2 c0,2.84 -2,2.84 -2.55,2.84 c-1.12,0 -2.84,-0.07 -2.84,-3.5700000000000003 V45.228394865989685 c0,-2.55 1.12,-3.27 2.9,-3.27 s2.47,0.92 2.36,2.67 z" id="svg_7" fill="#ffffff" fill-opacity="1"/><path class="D" d="M176.80049337387084,42.298394865989685 v1 h-2.38 v8 h-1.1400000000000001 v-8 h-2.37 v-1 h5.9 zm-8.4,-0.17 h1.15 v9 h-1.15 zm-39.74,5.86 v-3 c0,-1.8800000000000003 -1.3,-1.94 -1.6600000000000001,-1.94 s-1.6600000000000001,0.06000000000000068 -1.6600000000000001,1.94 v3 c0,2 0.5700000000000006,2.47 1.6600000000000001,2.47 s1.6600000000000001,-0.5 1.6600000000000001,-2.47 m-4.5,0 v-3 a2.84,2.84 0 1 1 5.67,0 v3 c0,2.5 -0.93,3.48 -2.83,3.48 S124.16049337387085,50.42839486598969 124.16049337387085,47.92839486598969 m42.15,-5.7 v9 h-1.57 l-3.55,-7.8 H161.16049337387085 v7.8 h-1.02 v-9 h1.62 l3.5,7.7 h0.03000000000000037 v-7.7 h1.02 zM44.590493373870856,32.02839486598968 v-4.63 A4.28,4.28 0 0 0 42.16049337387085,28.838394865989684 a1.82,1.82 0 0 0 0.93,2.94 a13.66,13.66 0 0 0 1.5,0.26 m31.1,-4.67 A4.58,4.58 0 0 0 73.16049337387085,28.908394865989685 a1.81,1.81 0 0 0 0.4300000000000003,2.62 a12.8,12.8 0 0 0 2.08,0.5700000000000006 zm-46.87,0.6000000000000006 L31.58049337387085,30.728394865989685 a8,8 0 0 1 1,-1.11 c0.45,-0.4400000000000035 1,-0.8200000000000006 1.44,-1.23 a3.06,3.06 0 0 0 -5.14,-0.4100000000000003 m6.66,0.8500000000000006 A9.14,9.14 0 0 0 32.16049337387085,31.988394865989687 h9 l-0.25,-0.55 a3.23,3.23 0 0 1 0.7100000000000006,-3.71 a6.83,6.83 0 0 1 4.16,-1.7200000000000002 v6 h7.6 v-5.36 h1.1400000000000001 v5.33 H64.66049337387085 l-0.3600000000000003,-3 c-0.18000000000000024,-1.82 -1.33,-2.5 -3,-1.75 l-0.46,0.18000000000000024 l-0.680000000000009,-0.8200000000000006 a3.6500000000000004,3.6500000000000004 0 0 1 3.38,-0.6000000000000006 a2.63,2.63 0 0 1 1.8,2.2800000000000002 c0.15000000000000024,0.8 0.2,1.6300000000000003 0.3000000000000003,2.44 c0.16000000000000192,1.12 0.3500000000000003,1.3 1.47,1.3 h5.12 a9.88,9.88 0 0 1 -0.4300000000000003,-1.1 a3.27,3.27 0 0 1 1.55,-3.7600000000000002 a7,7 0 0 1 3.5,-1.15 v6 h5.7 v-10 h1.1 v11.2 h-1 q-25.2,0 -50.42,0 c-0.8,0 -1.12,0.26 -1.23,1 c-0.07,0.4300000000000003 -0.2,0.8600000000000046 -0.23,1.3 C30.69049337387085,37.02839486598968 31.32049337387085,37.92839486598969 33.16049337387085,38.728394865989685 l-0.2400000000000002,1 c-2.4,-0.5 -3.68,-2.5700000000000003 -3.16,-5.15 a7,7 0 0 1 0.5800000000000006,-1.7400000000000002 A1,1 0 0 0 30.16049337387085,31.588394865989684 a26.12,26.12 0 0 0 -2.5,-2.31 C27.16049337387085,28.92839486598968 27.16049337387085,28.728394865989685 27.36049337387085,28.228394865989685 a4.27,4.27 0 0 1 4.11,-2.55 a4.17,4.17 0 0 1 4,3.16 M118.16049337387085,27.278394865989686 l-1.7400000000000002,0.9 a2.09,2.09 0 0 0 -0.9400000000000006,2.72 a2.42,2.42 0 0 0 2.68,1 zm-23.24,-0.1 a5.28,5.28 0 0 0 -2.6100000000000003,2.1 a1.75,1.75 0 0 0 1.2,2.8 c0.92,0.2 0.92,0.2 0.7000000000000006,1.25 c-1.22,-0.1 -2.44,-0.32000000000000367 -3,-1.55 a3.2800000000000002,3.2800000000000002 0 0 1 0.4300000000000003,-3.55 a8.31,8.31 0 0 1 4.5,-2.75 v6.5 h7.53 V26.728394865989685 h1.1400000000000001 v5.26 h9.84 a11.69,11.69 0 0 1 -0.4800000000000003,-1.7200000000000002 a3.19,3.19 0 0 1 1.55,-3 a7.5,7.5 0 0 1 3.59,-1.25 v6 H129.16049337387085 V26.728394865989685 h1.1400000000000001 v5.28 h9.45 v-5.34 h1.1 v6.52 H96.50049337387085 c-1.2,0 -1.6,-0.4 -1.6,-1.62 v-4.38 m58.6,5.96 c-0.32000000000000367,3.74 -0.77,4.44 -2.93,4.6 v-1 c1.26,-0.3700000000000018 1.6300000000000003,-0.7300000000000006 1.6700000000000008,-2 l0.06000000000000068,-7.07 V26.728394865989685 h1.13 v5.33 h18.3 v-5.38 h1.1 v6.48 zm23.5,0.04000000000000011 V32.02839486598968 h3.43 c1.2,0 1.35,-0.08000000000000022 1.44,-1.3 a5.66,5.66 0 0 0 -0.13,-2 a2.2,2.2 0 0 0 -3.42,-1.4300000000000002 l-0.6400000000000079,0.3600000000000003 l-0.6500000000000079,-0.8400000000000006 a3.74,3.74 0 0 1 3.51,-0.91 a3.2800000000000002,3.2800000000000002 0 0 1 2.38,2.6500000000000004 a6.09,6.09 0 0 1 -0.45,4.11 a0.870000000000007,0.870000000000007 0 0 1 -0.5800000000000006,0.45 h-4.9 " id="svg_8" fill="#ffffff" fill-opacity="1"/><path class="D" d="M85.39049337387084,22.008394865989686 h1.1400000000000001 v11.15 h-1.1400000000000001 zM52.16049337387085,23.728394865989685 a0.740000000000007,0.740000000000007 0 0 1 -0.21000000000000021,0.51 a0.7300000000000006,0.7300000000000006 0 0 1 -0.51,0.21000000000000021 a0.7200000000000006,0.7200000000000006 0 1 1 0,-1.4300000000000002 a0.7200000000000006,0.7200000000000006 0 0 1 0.7200000000000006,0.7100000000000006 m2.34,0 a0.7200000000000006,0.7200000000000006 0 0 1 -0.7200000000000006,0.7200000000000006 a0.670000000000009,0.670000000000009 0 0 1 -0.5,-0.21000000000000021 a0.7100000000000006,0.7100000000000006 0 0 1 0,-1 a0.670000000000009,0.670000000000009 0 0 1 0.5,-0.21000000000000021 a0.7200000000000006,0.7200000000000006 0 0 1 0.7200000000000006,0.7100000000000006 m9.4,11.65 a0.7200000000000006,0.7200000000000006 0 1 1 -0.23,-0.5 a0.6900000000000094,0.6900000000000094 0 0 1 0.21000000000000021,0.5 M174.56049337387086,22.158394865989685 h1.1 v11.1 h-1.1 zm-1.53,1.97 a2.34,2.34 0 0 0 -0.91,-0.21000000000000021 a0.740000000000007,0.740000000000007 0 0 0 -0.4400000000000035,0.11000000000000022 a0.4200000000000003,0.4200000000000003 0 0 0 -0.17,0.3800000000000035 a0.630000000000007,0.630000000000007 0 0 0 0.32000000000000367,0.5900000000000006 a1.55,1.55 0 0 0 0.78,0.18000000000000024 h0.55 V25.728394865989685 h-2.83 v-0.55 h0.9 c-0.06000000000000068,0 -0.1,-0.12000000000000002 -0.17,-0.28 a1.57,1.57 0 0 1 -0.08000000000000022,-0.4900000000000003 a0.9,0.9 0 0 1 0.3600000000000003,-0.81 a1.3800000000000001,1.3800000000000001 0 0 1 0.78,-0.2400000000000002 a2.92,2.92 0 0 1 1.1400000000000001,0.2400000000000002 zm-22.53,-0.3000000000000003 a0.7200000000000006,0.7200000000000006 0 1 1 -1.4300000000000002,0 a0.6600000000000084,0.6600000000000084 0 0 1 0.21000000000000021,-0.5 a0.6900000000000094,0.6900000000000094 0 0 1 1,0 a0.6600000000000084,0.6600000000000084 0 0 1 0.21000000000000021,0.5 m-2.38,0 a0.740000000000007,0.740000000000007 0 0 1 -0.21000000000000021,0.51 a0.7200000000000006,0.7200000000000006 0 0 1 -1.23,-0.51 a0.6600000000000084,0.6600000000000084 0 0 1 0.21000000000000021,-0.5 a0.7000000000000006,0.7000000000000006 0 0 1 1,0 a0.6900000000000094,0.6900000000000094 0 0 1 0.21000000000000021,0.5 m1.1400000000000001,8.26 v-4.9 a11.97,11.97 0 0 0 -0.8900000000000079,0.4400000000000035 a4.8,4.8 0 0 0 -0.9500000000000006,0.670000000000009 a4,4 0 0 0 -0.7600000000000074,0.8900000000000079 a2.13,2.13 0 0 0 -0.32000000000000367,1.1400000000000001 a1.29,1.29 0 0 0 0.27,0.8300000000000006 a2.25,2.25 0 0 0 0.7000000000000006,0.55 a3.22,3.22 0 0 0 0.91,0.2900000000000003 a5.09,5.09 0 0 0 0.91,0.09000000000000138 zm1.1,1.1400000000000001 H149.16049337387085 a5.86,5.86 0 0 1 -1.23,-0.15000000000000024 a4.47,4.47 0 0 1 -1.29,-0.4900000000000003 a3.08,3.08 0 0 1 -1,-0.8900000000000079 a2.25,2.25 0 0 1 -0.4200000000000003,-1.3900000000000001 a3.17,3.17 0 0 1 0.3000000000000003,-1.3800000000000001 a4.52,4.52 0 0 1 0.7600000000000074,-1.12 a6,6 0 0 1 1,-0.880000000000007 a9.45,9.45 0 0 1 1.15,-0.6400000000000079 a7.74,7.74 0 0 1 1.06,-0.4200000000000003 a7.36,7.36 0 0 1 0.79,-0.22000000000000094 zm-11.6,-9.4 a0.7200000000000006,0.7200000000000006 0 0 1 -0.7200000000000006,0.7200000000000006 a0.7100000000000006,0.7100000000000006 0 0 1 -0.51,-0.21000000000000021 a0.6900000000000094,0.6900000000000094 0 0 1 -0.21000000000000021,-0.51 a0.6600000000000084,0.6600000000000084 0 0 1 0.21000000000000021,-0.5 a0.680000000000009,0.680000000000009 0 0 1 0.51,-0.22000000000000094 a0.670000000000009,0.670000000000009 0 0 1 0.51,0.22000000000000094 a0.6600000000000084,0.6600000000000084 0 0 1 0.21000000000000021,0.5 " id="svg_9" fill="#ffffff" fill-opacity="1"/><path class="D" d="M141.10049337387085,23.828394865989686 a0.6900000000000094,0.6900000000000094 0 0 1 -0.21000000000000021,0.51 a0.7100000000000006,0.7100000000000006 0 0 1 -0.51,0.21000000000000021 a0.7200000000000006,0.7200000000000006 0 0 1 -0.7200000000000006,-0.7200000000000006 a0.6600000000000084,0.6600000000000084 0 0 1 0.21000000000000021,-0.5 a0.670000000000009,0.670000000000009 0 0 1 0.51,-0.22000000000000094 a0.680000000000009,0.680000000000009 0 0 1 0.51,0.22000000000000094 a0.6600000000000084,0.6600000000000084 0 0 1 0.21000000000000021,0.5 m-10.5,0 a0.7200000000000006,0.7200000000000006 0 0 1 -0.7200000000000006,0.7200000000000006 a0.7300000000000006,0.7300000000000006 0 0 1 -0.51,-0.21000000000000021 a0.740000000000007,0.740000000000007 0 0 1 -0.21000000000000021,-0.51 a0.7300000000000006,0.7300000000000006 0 0 1 0.7200000000000006,-0.7200000000000006 a0.670000000000009,0.670000000000009 0 0 1 0.51,0.22000000000000094 a0.6600000000000084,0.6600000000000084 0 0 1 0.21000000000000021,0.5 M102.72049337387087,35.52839486598968 a0.7200000000000006,0.7200000000000006 0 0 1 -0.7200000000000006,0.7200000000000006 a0.7300000000000006,0.7300000000000006 0 0 1 -0.51,-0.21000000000000021 a0.740000000000007,0.740000000000007 0 0 1 -0.21000000000000021,-0.51 a0.7300000000000006,0.7300000000000006 0 0 1 0.7200000000000006,-0.7200000000000006 a0.670000000000009,0.670000000000009 0 0 1 0.51,0.22000000000000094 a0.6600000000000084,0.6600000000000084 0 0 1 0.21000000000000021,0.5 m2.44,0 a0.6900000000000094,0.6900000000000094 0 0 1 -0.21000000000000021,0.51 a0.7100000000000006,0.7100000000000006 0 0 1 -0.51,0.21000000000000021 a0.7200000000000006,0.7200000000000006 0 0 1 -0.7200000000000006,-0.7200000000000006 a0.6600000000000084,0.6600000000000084 0 0 1 0.21000000000000021,-0.5 a0.670000000000009,0.670000000000009 0 0 1 0.51,-0.22000000000000094 a0.680000000000009,0.680000000000009 0 0 1 0.51,0.22000000000000094 a0.6600000000000084,0.6600000000000084 0 0 1 0.21000000000000021,0.5 M93.64049337387085,23.728394865989685 a0.7200000000000006,0.7200000000000006 0 0 1 -0.7200000000000006,0.7200000000000006 a0.7000000000000006,0.7000000000000006 0 0 1 -0.7100000000000006,-0.7200000000000006 a0.7200000000000006,0.7200000000000006 0 0 1 0.2,-0.5 a0.7300000000000006,0.7300000000000006 0 0 1 0.51,-0.21000000000000021 a0.7200000000000006,0.7200000000000006 0 0 1 0.7200000000000006,0.7100000000000006 m2.4,0 a0.6900000000000094,0.6900000000000094 0 0 1 -0.21000000000000021,0.51 a0.7100000000000006,0.7100000000000006 0 0 1 -0.51,0.21000000000000021 a0.6900000000000094,0.6900000000000094 0 0 1 -0.51,-0.21000000000000021 a0.7100000000000006,0.7100000000000006 0 0 1 0,-1 a0.6900000000000094,0.6900000000000094 0 0 1 0.51,-0.21000000000000021 a0.7100000000000006,0.7100000000000006 0 0 1 0.51,0.21000000000000021 a0.6900000000000094,0.6900000000000094 0 0 1 0.21000000000000021,0.5 m36.88,27.6 h-1.1 v-9.15 h1.9 l2.3,7.68 h0.03000000000000037 l2.33,-7.68 h1.92 v9.15 h-1.1600000000000001 v-8.1 h-0.03000000000000037 l-2.56,8.13 h-1.1 l-2.5,-8.13 h-0.02000000000000026 v8.13 zm10.34,0 H142.16049337387085 v-9.15 h1.8800000000000003 l2.3,7.68 h0.03000000000000037 l2.33,-7.68 h1.92 v9.15 h-1.1600000000000001 v-8.1 h-0.03000000000000037 l-2.56,8.13 h-1.1 l-2.5,-8.13 h-0.02000000000000026 v8.13 zm38.66,-9.14 h1.15 l-2.44,5.5600000000000005 v3.4 h-1.1400000000000001 v-3.4 l-2.42,-5.5600000000000005 h1.28 l1.7600000000000002,4.34 l1.8,-4.34 z" id="svg_10" fill="#ffffff" fill-opacity="1"/></g></svg>