<svg width="37" height="41" viewBox="0 0 37 41" fill="none" xmlns="http://www.w3.org/2000/svg">
<mask id="path-1-outside-1_9393_38889" maskUnits="userSpaceOnUse" x="0" y="0" width="37" height="41" fill="black">
<rect fill="white" width="37" height="41"/>
<path d="M21.7578 1C29.6235 1.00004 36 7.37646 36 15.2422V21.7578C36 29.3999 29.9808 35.635 22.4248 35.9834C22.424 35.9844 22.4237 35.9863 22.4229 35.9873L20.0479 39.0039C19.2471 40.021 17.706 40.021 16.9053 39.0039L14.5303 35.9873C14.5289 35.9855 14.5278 35.9832 14.5264 35.9814C6.99324 35.6085 1.00003 29.3835 1 21.7578V15.2422C1.00004 7.37646 7.37646 1.00004 15.2422 1H21.7578Z"/>
</mask>
<path d="M21.7578 1C29.6235 1.00004 36 7.37646 36 15.2422V21.7578C36 29.3999 29.9808 35.635 22.4248 35.9834C22.424 35.9844 22.4237 35.9863 22.4229 35.9873L20.0479 39.0039C19.2471 40.021 17.706 40.021 16.9053 39.0039L14.5303 35.9873C14.5289 35.9855 14.5278 35.9832 14.5264 35.9814C6.99324 35.6085 1.00003 29.3835 1 21.7578V15.2422C1.00004 7.37646 7.37646 1.00004 15.2422 1H21.7578Z" fill="url(#paint0_linear_9393_38889)"/>
<path d="M21.7578 1L21.7578 0H21.7578V1ZM36 15.2422H37V15.2422L36 15.2422ZM36 21.7578L37 21.7578V21.7578H36ZM22.4248 35.9834L22.3787 34.9845L21.9208 35.0056L21.638 35.3663L22.4248 35.9834ZM22.4229 35.9873L23.2086 36.6059L23.2086 36.6059L22.4229 35.9873ZM20.0479 39.0039L19.2621 38.3853L19.2621 38.3853L20.0479 39.0039ZM16.9053 39.0039L17.691 38.3853L17.691 38.3853L16.9053 39.0039ZM14.5303 35.9873L13.7446 36.6059L13.7446 36.6059L14.5303 35.9873ZM14.5264 35.9814L15.314 35.3653L15.0324 35.0053L14.5758 34.9827L14.5264 35.9814ZM1 21.7578H0V21.7578L1 21.7578ZM1 15.2422L0 15.2422V15.2422H1ZM15.2422 1V0H15.2422L15.2422 1ZM21.7578 1L21.7578 2C29.0713 2.00003 35 7.92875 35 15.2422L36 15.2422L37 15.2422C37 6.82417 30.1758 3.77297e-05 21.7578 0L21.7578 1ZM36 15.2422H35V21.7578H36H37V15.2422H36ZM36 21.7578L35 21.7578C35 28.863 29.4036 34.6605 22.3787 34.9845L22.4248 35.9834L22.4709 36.9823C30.5581 36.6094 37 29.9369 37 21.7578L36 21.7578ZM22.4248 35.9834L21.638 35.3663C21.6045 35.4089 21.5793 35.4482 21.561 35.4796C21.5426 35.5109 21.529 35.5382 21.5197 35.5579C21.5104 35.5777 21.5036 35.5939 21.4998 35.6031C21.4978 35.6079 21.4962 35.6118 21.4953 35.6142C21.4948 35.6154 21.4944 35.6164 21.4942 35.617C21.494 35.6173 21.4939 35.6175 21.4939 35.6177C21.4938 35.6178 21.4938 35.6178 21.4938 35.6179C21.4938 35.6179 21.4938 35.618 21.4938 35.618C21.4936 35.6183 21.4943 35.6166 21.4951 35.6145C21.496 35.6123 21.4976 35.6085 21.4995 35.6038C21.5032 35.5947 21.51 35.5788 21.5192 35.5592C21.5285 35.5397 21.542 35.5126 21.5603 35.4814C21.5785 35.4503 21.6037 35.4112 21.6371 35.3687L22.4229 35.9873L23.2086 36.6059C23.2422 36.5632 23.2676 36.5238 23.286 36.4923C23.3045 36.4608 23.3182 36.4335 23.3276 36.4136C23.337 36.3937 23.3438 36.3774 23.3477 36.368C23.3497 36.3631 23.3513 36.3591 23.3523 36.3567C23.3528 36.3555 23.3532 36.3545 23.3535 36.3538C23.3536 36.3535 23.3537 36.3532 23.3538 36.3531C23.3538 36.3529 23.3539 36.3527 23.3539 36.3527C23.3541 36.3523 23.3534 36.354 23.3526 36.356C23.3517 36.3582 23.3502 36.3619 23.3483 36.3665C23.3446 36.3754 23.338 36.3912 23.3288 36.4107C23.3197 36.4301 23.3062 36.457 23.2881 36.4881C23.2699 36.5191 23.2449 36.5581 23.2117 36.6005L22.4248 35.9834ZM22.4229 35.9873L21.6371 35.3687L19.2621 38.3853L20.0479 39.0039L20.8336 39.6225L23.2086 36.6059L22.4229 35.9873ZM20.0479 39.0039L19.2621 38.3853C18.8618 38.8939 18.0914 38.8939 17.691 38.3853L16.9053 39.0039L16.1196 39.6225C17.3207 41.1481 19.6324 41.1481 20.8336 39.6225L20.0479 39.0039ZM16.9053 39.0039L17.691 38.3853L15.316 35.3687L14.5303 35.9873L13.7446 36.6059L16.1196 39.6225L16.9053 39.0039ZM14.5303 35.9873L15.316 35.3687C15.3283 35.3843 15.3385 35.3982 15.3465 35.4096C15.3546 35.4211 15.3612 35.4309 15.366 35.4382C15.3708 35.4456 15.3745 35.4515 15.3767 35.4549C15.3787 35.4581 15.3803 35.4608 15.3799 35.4602C15.3799 35.4602 15.3799 35.4601 15.3798 35.46C15.3798 35.4599 15.3797 35.4598 15.3796 35.4597C15.3795 35.4594 15.3792 35.459 15.3789 35.4585C15.3783 35.4576 15.3773 35.456 15.3761 35.4541C15.3738 35.4503 15.3699 35.4441 15.3649 35.4365C15.3599 35.4288 15.3532 35.4187 15.345 35.4071C15.3368 35.3954 15.3264 35.3812 15.314 35.3653L14.5264 35.9814L13.7387 36.5976C13.7267 36.5822 13.7167 36.5684 13.7088 36.5572C13.7009 36.546 13.6945 36.5364 13.6898 36.5292C13.6852 36.5221 13.6816 36.5164 13.6796 36.5132C13.6778 36.5103 13.6762 36.5077 13.6767 36.5086C13.6768 36.5087 13.6773 36.5095 13.6779 36.5105C13.6786 36.5116 13.6796 36.5133 13.6809 36.5153C13.6834 36.5193 13.6874 36.5257 13.6926 36.5335C13.6977 36.5414 13.7046 36.5517 13.713 36.5636C13.7214 36.5755 13.7319 36.5899 13.7446 36.6059L14.5303 35.9873ZM14.5264 35.9814L14.5758 34.9827C7.57235 34.6359 2.00003 28.8477 2 21.7578L1 21.7578L0 21.7578C3.71337e-05 29.9193 6.41412 36.5811 14.4769 36.9802L14.5264 35.9814ZM1 21.7578H2V15.2422H1H0V21.7578H1ZM1 15.2422L2 15.2422C2.00003 7.92875 7.92875 2.00003 15.2422 2L15.2422 1L15.2422 0C6.82417 3.83258e-05 3.77297e-05 6.82417 0 15.2422L1 15.2422ZM15.2422 1V2H21.7578V1V0H15.2422V1Z" fill="url(#paint1_linear_9393_38889)" mask="url(#path-1-outside-1_9393_38889)"/>
<path d="M17.9935 21.9844C20.7513 21.9844 22.9869 19.7487 22.9869 16.9909C22.9869 14.2331 20.7513 11.9974 17.9935 11.9974C15.2357 11.9974 13 14.2331 13 16.9909C13 19.7487 15.2357 21.9844 17.9935 21.9844Z" stroke="url(#paint2_linear_9393_38889)" stroke-width="1.59791" stroke-linecap="round" stroke-linejoin="round"/>
<path d="M21.5234 20.5219L24.9833 23.9817" stroke="url(#paint3_linear_9393_38889)" stroke-width="1.59791" stroke-linecap="round" stroke-linejoin="round"/>
<defs>
<linearGradient id="paint0_linear_9393_38889" x1="1.81061" y1="11.5439" x2="23.2019" y2="31.9296" gradientUnits="userSpaceOnUse">
<stop stop-color="#9292FF"/>
<stop offset="1" stop-color="#3295FF"/>
</linearGradient>
<linearGradient id="paint1_linear_9393_38889" x1="16.5" y1="-15" x2="21.2557" y2="31.5138" gradientUnits="userSpaceOnUse">
<stop stop-color="#3295FF"/>
<stop offset="1" stop-color="#9292FF" stop-opacity="0"/>
</linearGradient>
<linearGradient id="paint2_linear_9393_38889" x1="13" y1="16.9909" x2="22.9869" y2="16.9909" gradientUnits="userSpaceOnUse">
<stop stop-color="white"/>
<stop offset="1" stop-color="white"/>
</linearGradient>
<linearGradient id="paint3_linear_9393_38889" x1="21.5234" y1="22.2518" x2="24.9833" y2="22.2518" gradientUnits="userSpaceOnUse">
<stop stop-color="white"/>
<stop offset="1" stop-color="white"/>
</linearGradient>
</defs>
</svg>
